<?xml version="1.0" encoding="UTF-8" standalone="no"?>
<svg
   xmlns:dc="http://purl.org/dc/elements/1.1/"
   xmlns:cc="http://creativecommons.org/ns#"
   xmlns:rdf="http://www.w3.org/1999/02/22-rdf-syntax-ns#"
   xmlns:svg="http://www.w3.org/2000/svg"
   xmlns="http://www.w3.org/2000/svg"
   xmlns:sodipodi="http://sodipodi.sourceforge.net/DTD/sodipodi-0.dtd"
   xmlns:inkscape="http://www.inkscape.org/namespaces/inkscape"
   height="42.945766"
   width="99.43972"
   inkscape:version="1.0 (4035a4f, 2020-05-01)"
   sodipodi:docname="Logo_empleafp_corto.svg"
   xml:space="preserve"
   viewBox="0 0 99.439724 42.945767"
   y="0px"
   x="0px"
   id="Capa_1"
   version="1.1"><metadata
   id="metadata1344"><rdf:RDF><cc:Work
       rdf:about=""><dc:format>image/svg+xml</dc:format><dc:type
         rdf:resource="http://purl.org/dc/dcmitype/StillImage" /><dc:title /></cc:Work></rdf:RDF></metadata><defs
   id="defs1342" /><sodipodi:namedview
   inkscape:document-rotation="0"
   inkscape:current-layer="g1329"
   inkscape:window-maximized="1"
   inkscape:window-y="0"
   inkscape:window-x="1366"
   inkscape:cy="-167.39422"
   inkscape:cx="82.305668"
   inkscape:zoom="2"
   showgrid="false"
   id="namedview1340"
   inkscape:window-height="1148"
   inkscape:window-width="1916"
   inkscape:pageshadow="2"
   inkscape:pageopacity="0"
   guidetolerance="10"
   gridtolerance="10"
   objecttolerance="10"
   borderopacity="1"
   bordercolor="#666666"
   pagecolor="#ffffff" />
<style
   id="style1307"
   type="text/css">
	.st0{fill:#0055B8;}
	.st1{fill:#FFFFFF;}
	.st2{fill:#A1B1C8;}
</style>
<g
   transform="translate(-193.06999,-193.06001)"
   id="g1337">
	<g
   inkscape:export-ydpi="96"
   inkscape:export-xdpi="96"
   inkscape:export-filename="/home/logongas/g1335.png"
   transform="matrix(0.10232004,0,0,0.10232004,173.31506,173.3061)"
   id="g1329">
		
	<text
   inkscape:export-ydpi="96"
   inkscape:export-xdpi="96"
   inkscape:export-filename="/home/logongas/g1335.png"
   transform="scale(1.0114284,0.98870074)"
   id="text1356"
   y="478.49677"
   x="864.32001"
   style="font-style:normal;font-weight:normal;font-size:43.5355px;line-height:1.25;font-family:sans-serif;letter-spacing:0px;word-spacing:0px;fill:#0055b8;fill-opacity:1;stroke:none;stroke-width:1.08839"
   xml:space="preserve"><tspan
     style="font-style:normal;font-variant:normal;font-weight:bold;font-stretch:normal;font-size:208.971px;font-family:sans-serif;-inkscape-font-specification:'sans-serif, Bold';font-variant-ligatures:normal;font-variant-caps:normal;font-variant-numeric:normal;font-feature-settings:normal;text-align:start;writing-mode:lr-tb;text-anchor:start;fill:#0055b8;fill-opacity:1;stroke-width:1.08839"
     y="478.49677"
     x="864.32001"
     id="tspan1354"
     sodipodi:role="line">FP</tspan></text>
<flowRoot
   inkscape:export-ydpi="96"
   inkscape:export-xdpi="96"
   inkscape:export-filename="/home/logongas/g1335.png"
   transform="matrix(2.2331007,0,0,2.22233,-1626.8346,-429.10995)"
   style="font-style:normal;font-weight:normal;font-size:40px;line-height:1.25;font-family:sans-serif;letter-spacing:0px;word-spacing:0px;fill:#a1b1c8;fill-opacity:1;stroke:none"
   id="flowRoot1358"
   xml:space="preserve"><flowRegion
     style="fill:#a1b1c8;fill-opacity:1"
     id="flowRegion1360"><rect
       style="fill:#a1b1c8;fill-opacity:1"
       y="322.85001"
       x="1051.38"
       height="166.21561"
       width="986.38019"
       id="rect1362" /></flowRegion><flowPara
     style="font-style:normal;font-variant:normal;font-weight:bold;font-stretch:normal;font-size:96px;font-family:sans-serif;-inkscape-font-specification:'sans-serif, Bold';font-variant-ligatures:normal;font-variant-caps:normal;font-variant-numeric:normal;font-feature-settings:normal;text-align:start;writing-mode:lr-tb;text-anchor:start;fill:#a1b1c8;fill-opacity:1"
     id="flowPara1364">E</flowPara></flowRoot></g>
	<g
   inkscape:export-ydpi="96"
   inkscape:export-xdpi="96"
   inkscape:export-filename="/home/logongas/g1335.png"
   transform="matrix(0.10232004,0,0,0.10232004,173.31506,173.3061)"
   id="g1335">
		<path
   style="fill:#0055b8"
   inkscape:connector-curvature="0"
   id="path1331"
   d="m 644.16,365.11 -26.19,-45.37 0.09,-0.01 -47.16,-81.68 c 0,0 -0.33,-0.55 -0.85,-1.42 -0.07,-0.11 -0.17,-0.19 -0.24,-0.3 l -3.14,-5.44 C 553.15,207.48 528.18,193.06 501.15,193.06 H 346.17 c -26.95,0 -52.05,14.5 -65.51,37.83 l -77.49,134.22 c -6.73,11.66 -10.1,24.74 -10.1,37.82 0,10.67 2.37,21.31 6.85,31.22 l 33.64,-58.26 v 0 l 35.33,-61.2 0.49,-0.84 38.74,-67.1 c 7.85,-13.6 22.36,-21.98 38.06,-21.98 h 154.99 c 15.7,0 30.21,8.38 38.06,21.97 l 77.49,134.21 c 7.82,13.54 7.83,30.38 0,43.95 l -77.49,134.21 c -7.85,13.6 -22.36,21.98 -38.06,21.98 H 346.18 c -1.92,0 -3.82,-0.17 -5.7,-0.42 l 37.75,-65.38 99.32,0.09 c 6.7,0.01 12.89,-3.57 16.24,-9.37 l 54.87,-95.12 c 3.33,-5.76 3.32,-12.86 -0.01,-18.63 L 494.59,298.7 c -3.33,-5.75 -9.46,-9.3 -16.11,-9.31 l -110.55,-0.11 c -5.2,-0.01 -10.01,2.76 -12.61,7.27 l -14.13,24.42 125.39,0.12 c 2.63,0 5.06,1.4 6.37,3.68 l 42.38,73.24 c 1.32,2.28 1.32,5.1 0,7.38 l -43.13,74.58 c -1.32,2.28 -3.75,3.68 -6.39,3.68 l -105.74,-0.1 -47.39,81.88 c 0,0 0,0 -0.01,-0.01 l -16.37,28.35 c 13.63,11.97 31.26,19.01 49.88,19.01 h 154.99 c 27.03,0 52,-14.42 65.51,-37.82 l 77.5,-134.23 c 13.49,-23.38 13.49,-52.22 -0.02,-75.62 z"
   class="st0" />
		<path
   style="fill:#0055b8"
   inkscape:connector-curvature="0"
   id="path1333"
   d="m 324.72,418.16 98.73,-0.32 c 6.84,-0.02 13.15,-3.68 16.57,-9.6 l 12.77,-22.13 -138.56,0.32 c -6.69,-0.01 -12.88,3.56 -16.23,9.35 l -60.5,104.6 18.43,31.49 64.09,-111.01 c 0.97,-1.67 2.76,-2.7 4.7,-2.7 z"
   class="st0" />
	</g>
</g>
</svg>
