<?xml version="1.0" encoding="UTF-8" standalone="no"?><!-- Generator: Gravit.io --><svg xmlns="http://www.w3.org/2000/svg" xmlns:xlink="http://www.w3.org/1999/xlink" style="isolation:isolate" viewBox="0 0 461.225 419.72" width="461.225pt" height="419.72pt"><defs><clipPath id="_clipPath_wHCGozURMoAa4ncyyj0G3TVBNtJlmXIv"><rect width="461.225" height="419.72"/></clipPath></defs><g clip-path="url(#_clipPath_wHCGozURMoAa4ncyyj0G3TVBNtJlmXIv)"><g><path d=" M 451.09 172.05 L 424.9 126.68 L 424.99 126.67 L 377.83 44.99 C 377.83 44.99 377.5 44.44 376.98 43.57 C 376.91 43.46 376.81 43.38 376.74 43.27 L 373.6 37.83 C 360.08 14.42 335.11 0 308.08 0 L 153.1 0 C 126.15 0 101.05 14.5 87.59 37.83 L 10.1 172.05 C 3.37 183.71 0 196.79 0 209.87 C 0 220.54 2.37 231.18 6.85 241.09 L 40.49 182.83 L 40.49 182.83 L 75.82 121.63 L 76.31 120.79 L 115.05 53.69 C 122.9 40.09 137.41 31.71 153.11 31.71 L 308.1 31.71 C 323.8 31.71 338.31 40.09 346.16 53.68 L 423.65 187.89 C 431.47 201.43 431.48 218.27 423.65 231.84 L 346.16 366.05 C 338.31 379.65 323.8 388.03 308.1 388.03 L 153.11 388.03 C 151.19 388.03 149.29 387.86 147.41 387.61 L 185.16 322.23 L 284.48 322.32 C 291.18 322.33 297.37 318.75 300.72 312.95 L 355.59 217.83 C 358.92 212.07 358.91 204.97 355.58 199.2 L 301.52 105.64 C 298.19 99.89 292.06 96.34 285.41 96.33 L 174.86 96.22 C 169.66 96.21 164.85 98.98 162.25 103.49 L 148.12 127.91 L 273.51 128.03 C 276.14 128.03 278.57 129.43 279.88 131.71 L 322.26 204.95 C 323.58 207.23 323.58 210.05 322.26 212.33 L 279.13 286.91 C 277.81 289.19 275.38 290.59 272.74 290.59 L 167 290.49 L 119.61 372.37 C 119.61 372.37 119.61 372.37 119.6 372.36 L 103.23 400.71 C 116.86 412.68 134.49 419.72 153.11 419.72 L 308.1 419.72 C 335.13 419.72 360.1 405.3 373.61 381.9 L 451.11 247.67 C 464.6 224.29 464.6 195.45 451.09 172.05 Z " fill="rgb(0,85,184)"/><path d=" M 131.65 225.1 L 230.38 224.78 C 237.22 224.76 243.53 221.1 246.95 215.18 L 259.72 193.05 L 121.16 193.37 C 114.47 193.36 108.28 196.93 104.93 202.72 L 44.43 307.32 L 62.86 338.81 L 126.95 227.8 C 127.92 226.13 129.71 225.1 131.65 225.1 Z " fill="rgb(0,85,184)"/></g></g></svg>