<?xml version="1.0" encoding="utf-8"?>
<!-- Generator: Adobe Illustrator 24.1.0, SVG Export Plug-In . SVG Version: 6.00 Build 0)  -->
<svg version="1.1" id="Capa_1" xmlns="http://www.w3.org/2000/svg" xmlns:xlink="http://www.w3.org/1999/xlink" x="0px" y="0px"
	 viewBox="0 0 2367.9 918.3" style="enable-background:new 0 0 2367.9 918.3;" xml:space="preserve">
<style type="text/css">
	.st0{fill:#FFFFFF;}
	.st1{fill:#A1B1C8;}
</style>
<g>
	<g>
		<g>
			<path class="st0" d="M744.2,322.9h108.3V348h-76v39.5h67.2v24.9h-67.2v64.5h-32.3V322.9z"/>
			<path class="st0" d="M889.3,322.9h72.2c17.4,0,30.5,4.9,39.4,14.6c8.9,9.7,13.4,22.6,13.4,38.5c0,10.4-2.2,19.5-6.6,27.5
				c-4.4,8-10.6,14.1-18.8,18.5c-8.1,4.4-17.6,6.6-28.5,6.6h-39v48.3h-32.3L889.3,322.9L889.3,322.9z M953.8,402.9
				c9.1,0,16-2.4,20.8-7.2c4.8-4.8,7.2-11.4,7.2-19.8c0-8.9-2.2-15.7-6.7-20.4s-11.2-7-20.1-7h-33.5v54.5H953.8z"/>
			<path class="st1" d="M1051.4,322.9h110.4V348h-78.2v39.5h69.3v24.9h-69.3v39.7h78.2v24.9h-110.4V322.9z"/>
			<path class="st1" d="M1203.4,322.9h32.5l45.2,92.5l45.2-92.5h32.3v153.9h-32.3V376.6l-35.8,73.6h-18.7l-36.1-73.6v100.2h-32.3
				L1203.4,322.9L1203.4,322.9z"/>
			<path class="st1" d="M1404.9,322.9h72.2c17.4,0,30.5,4.9,39.4,14.6c8.9,9.7,13.4,22.6,13.4,38.5c0,10.4-2.2,19.5-6.6,27.5
				c-4.4,8-10.6,14.1-18.8,18.5c-8.1,4.4-17.6,6.6-28.4,6.6h-39v48.3h-32.3L1404.9,322.9L1404.9,322.9z M1469.5,402.9
				c9.1,0,16-2.4,20.8-7.2s7.2-11.4,7.2-19.8c0-8.9-2.2-15.7-6.7-20.4s-11.2-7-20.1-7h-33.5v54.5H1469.5z"/>
			<path class="st1" d="M1567,322.9h73.9c17.2,0,30.1,4.5,38.6,13.6c8.5,9.1,12.8,21.8,12.8,38c0,10.4-2.7,19.3-8,26.8
				c-5.3,7.5-12.9,12.9-22.6,16.2c2.4,2.1,4.3,4.3,5.9,6.6c1.5,2.3,3.1,5.5,4.9,9.7l18.7,43h-33.5l-18.2-41.4
				c-1.6-3.7-3.4-6.2-5.4-7.5c-2-1.4-5.1-2-9.4-2h-25.3v50.9H1567L1567,322.9L1567,322.9z M1632.5,399.1c8.8,0,15.5-2,20.1-5.9
				c4.6-3.9,6.9-10.2,6.9-18.8c0-8.6-2.1-14.9-6.2-18.9c-4.1-4-10.4-6-18.9-6h-35.1v49.5H1632.5z"/>
			<path class="st1" d="M1733.8,322.9h110.4V348h-78.2v39.5h69.3v24.9h-69.3v39.7h78.2v24.9h-110.4L1733.8,322.9L1733.8,322.9z"/>
			<path class="st1" d="M1884,470.8v-28.5c7.2,2.9,14.8,5.2,22.9,6.9c8.1,1.8,16,2.6,23.7,2.6c12,0,20.4-1.1,25.2-3.3
				s7.3-6.9,7.3-13.9c0-4.6-1.1-8.3-3.4-11s-5.9-5.1-11-7.1c-5.1-2-13.1-4.5-23.9-7.5c-16.1-4.5-27.4-10-33.9-16.7
				c-6.5-6.7-9.8-15.9-9.8-27.7c0-14.2,5.2-25.1,15.5-32.8c10.3-7.6,25.4-11.5,45.2-11.5c8.9,0,17.4,0.6,25.4,1.8
				c8.1,1.2,14.6,2.7,19.7,4.6v28.5c-13.1-4.9-26.7-7.4-40.9-7.4c-10.8,0-18.9,1.2-24.2,3.6c-5.3,2.4-8,6.8-8,13.1c0,4,1,7.2,3,9.6
				c2,2.4,5.3,4.5,10,6.3c4.7,1.8,12,4,21.9,6.6c17.8,4.8,30.2,11,37.1,18.5c6.8,7.6,10.3,17.2,10.3,29c0,13.9-5.3,24.7-15.8,32.6
				c-10.5,7.9-26.1,11.8-46.6,11.8S1896.5,476.4,1884,470.8z"/>
			<path class="st1" d="M2080.9,322.9h35.4l58.6,153.9h-33.5l-14.6-37h-56.6l-14.4,37h-33.7L2080.9,322.9z M2122,414.9l-23.7-61.9
				l-23.4,61.9H2122z"/>
		</g>
	</g>
	<g>
		<path class="st1" d="M1070.4,571.6h8.7l19.2,54.5l4.9,0.8v3.9h-20.8v-3.9l6.6-0.8l-3.7-11.7h-23.1l-3.7,11.7l6.8,0.8v3.9h-18.7
			v-3.9l4.9-0.8L1070.4,571.6z M1075.4,584.2l-2-7l-1.9,7.1l-8,25.3h20.1L1075.4,584.2z"/>
		<path class="st1" d="M1113.1,624.4c0.5,0.8,1.7,1.5,3.4,2.1s3.5,1,5.4,1c3,0,5.2-0.6,6.6-1.7s2.1-2.8,2.1-4.8
			c0-1.4-0.4-2.7-1.3-3.7c-0.9-1-2.2-2-3.8-2.8c-1.6-0.8-3.9-1.8-6.9-3c-4.1-1.5-7-3.4-8.9-5.5s-2.8-4.9-2.8-8.4
			c0-2.3,0.7-4.3,2.1-6.1s3.3-3.1,5.8-4.1c2.4-1,5.2-1.5,8.2-1.5c2.4,0,4.5,0.2,6.4,0.5c1.8,0.4,3.3,0.7,4.4,1.1
			c1.1,0.4,1.8,0.6,2.2,0.7v9.8h-4.8l-1.6-5.8c-0.3-0.6-1.2-1.2-2.5-1.6s-2.9-0.7-4.6-0.7c-2.4,0-4.3,0.5-5.7,1.6s-2.2,2.5-2.2,4.3
			c0,1.6,0.4,2.9,1.2,3.9c0.8,1,1.7,1.9,2.9,2.5s2.7,1.4,4.7,2.2l1.6,0.6c2.9,1.2,5.3,2.3,7.2,3.3c1.8,1,3.4,2.4,4.6,4.2
			s1.9,3.8,1.9,6.3c0,3.9-1.5,7-4.5,9.3s-7.2,3.5-12.4,3.5c-2.6,0-5.3-0.4-8.1-1.1s-5.1-1.4-6.9-2.2v-10.1h5.1L1113.1,624.4z"/>
		<path class="st1" d="M1148.6,596.4c1.9-3.5,4.5-6.1,7.7-7.9s6.6-2.7,10.2-2.7c6.6,0,11.6,2.1,15,6.3c3.3,4.2,5,9.7,5,16.6
			c0,4.8-1,8.9-2.9,12.4c-1.9,3.5-4.5,6.1-7.7,7.9c-3.2,1.8-6.6,2.7-10.2,2.7c-6.6,0-11.6-2.1-15-6.3c-3.3-4.2-5-9.7-5-16.6
			C1145.6,604,1146.6,599.9,1148.6,596.4z M1174.5,622.6c1.9-3,2.9-7.5,2.9-13.3c0-5.8-0.9-10.5-2.7-13.9c-1.8-3.4-4.7-5.1-8.6-5.1
			c-3.6,0-6.4,1.5-8.4,4.5c-2,3-3,7.5-3,13.3c0,5.8,0.9,10.5,2.8,13.9c1.8,3.4,4.7,5.1,8.6,5.1
			C1169.7,627.1,1172.5,625.6,1174.5,622.6z"/>
		<path class="st1" d="M1195.3,597.3c1.7-3.5,4.2-6.3,7.6-8.4c3.3-2.1,7.4-3.1,12-3.1c2.3,0,4.2,0.2,5.8,0.6s3.6,1,5.8,1.7
			l-0.3,12.2h-5.1l-1.7-8.1c-0.3-1.5-2.3-2.2-6-2.2c-3.7,0-6.6,1.5-8.7,4.5c-2.1,3-3.2,7.2-3.2,12.7c0,6.2,1.2,10.9,3.6,14.2
			s5.5,4.9,9.4,4.9c2.2,0,4.3-0.3,6.3-1c2-0.7,3.7-1.5,5.1-2.5l1.5,3.2c-1.4,1.5-3.5,2.8-6.3,4c-2.8,1.2-5.6,1.8-8.4,1.8
			c-4.3,0-8-1-10.9-2.9s-5.2-4.6-6.7-8s-2.2-7.2-2.2-11.6C1192.7,604.7,1193.6,600.8,1195.3,597.3z"/>
		<path class="st1" d="M1240.3,593l-6-1.4v-4.2l12.2-1.5h0.2l1.8,1.4v38.9l6.3,0.6v3.9h-20.9v-3.9l6.4-0.7L1240.3,593L1240.3,593z
			 M1239.7,577.6c-0.8-1-1.3-2.2-1.3-3.6c0-1.7,0.5-3.1,1.5-4.2s2.4-1.7,4.2-1.7s3.1,0.5,3.9,1.4s1.3,2.2,1.3,3.6
			c0,1.8-0.5,3.2-1.5,4.3c-1,1-2.5,1.6-4.3,1.6h-0.1C1241.8,579,1240.5,578.5,1239.7,577.6z"/>
		<path class="st1" d="M1267.9,608c4.9-2.3,11.2-3.6,18.8-3.8V602c0-2.5-0.3-4.4-0.8-5.8c-0.5-1.4-1.4-2.5-2.7-3.1
			c-1.3-0.7-3.1-1-5.5-1c-2.7,0-5.1,0.4-7.2,1.1c-2.1,0.8-4.2,1.7-6.4,2.8l-2-4.1c0.7-0.6,1.9-1.3,3.8-2.3c1.8-1,4-1.8,6.4-2.5
			c2.4-0.7,4.8-1.1,7.3-1.1c3.7,0,6.7,0.5,8.9,1.5c2.2,1,3.8,2.7,4.7,4.9c0.9,2.3,1.4,5.3,1.4,9.1v25.3h4.7v3.5
			c-1.1,0.3-2.4,0.5-4,0.8c-1.6,0.3-3,0.4-4.2,0.4c-1.5,0-2.5-0.2-3-0.7c-0.5-0.5-0.8-1.4-0.8-3v-2.6c-1.6,1.6-3.5,3-5.8,4.3
			c-2.3,1.3-4.9,2-7.8,2c-3.8,0-6.9-1.1-9.4-3.3c-2.5-2.2-3.8-5.3-3.8-9.4C1260.5,614,1262.9,610.3,1267.9,608z M1281.8,625
			c1.8-0.8,3.4-1.8,4.9-3v-13.6c-5.7,0-10.1,0.9-13,2.7c-2.9,1.8-4.4,4.1-4.4,6.9c0,2.8,0.7,4.9,2.1,6.3s3.3,2,5.7,2
			C1278.4,626.2,1280,625.8,1281.8,625z"/>
		<path class="st1" d="M1306.4,597.3c1.7-3.5,4.2-6.3,7.6-8.4c3.3-2.1,7.4-3.1,12-3.1c2.3,0,4.2,0.2,5.8,0.6s3.6,1,5.8,1.7
			l-0.3,12.2h-5.1l-1.7-8.1c-0.3-1.5-2.3-2.2-6-2.2c-3.7,0-6.6,1.5-8.7,4.5c-2.1,3-3.2,7.2-3.2,12.7c0,6.2,1.2,10.9,3.6,14.2
			s5.5,4.9,9.4,4.9c2.2,0,4.3-0.3,6.3-1c2-0.7,3.7-1.5,5.1-2.5l1.5,3.2c-1.4,1.5-3.5,2.8-6.3,4c-2.8,1.2-5.6,1.8-8.4,1.8
			c-4.3,0-8-1-10.9-2.9s-5.2-4.6-6.7-8s-2.2-7.2-2.2-11.6C1303.8,604.7,1304.7,600.8,1306.4,597.3z"/>
		<path class="st1" d="M1351.4,593l-6-1.4v-4.2l12.2-1.5h0.2l1.8,1.4v38.9l6.3,0.6v3.9h-20.9v-3.9l6.4-0.7L1351.4,593L1351.4,593z
			 M1350.8,577.6c-0.8-1-1.3-2.2-1.3-3.6c0-1.7,0.5-3.1,1.5-4.2s2.4-1.7,4.2-1.7s3.1,0.5,3.9,1.4s1.3,2.2,1.3,3.6
			c0,1.8-0.5,3.2-1.5,4.3c-1,1-2.5,1.6-4.3,1.6h-0.1C1352.9,579,1351.7,578.5,1350.8,577.6z"/>
		<path class="st1" d="M1374.5,596.4c1.9-3.5,4.5-6.1,7.7-7.9c3.2-1.8,6.6-2.7,10.2-2.7c6.6,0,11.6,2.1,15,6.3c3.3,4.2,5,9.7,5,16.6
			c0,4.8-1,8.9-2.9,12.4c-1.9,3.5-4.5,6.1-7.7,7.9c-3.2,1.8-6.6,2.7-10.2,2.7c-6.6,0-11.6-2.1-15-6.3c-3.3-4.2-5-9.7-5-16.6
			C1371.6,604,1372.6,599.9,1374.5,596.4z M1400.4,622.6c1.9-3,2.9-7.5,2.9-13.3c0-5.8-0.9-10.5-2.7-13.9c-1.8-3.4-4.7-5.1-8.6-5.1
			c-3.6,0-6.4,1.5-8.4,4.5s-3,7.5-3,13.3c0,5.8,0.9,10.5,2.8,13.9c1.8,3.4,4.7,5.1,8.6,5.1C1395.7,627.1,1398.5,625.6,1400.4,622.6z
			 M1386,576.6l12.6-15.7l6,5c-1.1,1.8-3.5,4.2-7.1,7.3c-3.6,3.1-6.4,5.1-8.4,5.9L1386,576.6z"/>
		<path class="st1" d="M1424.3,593l-5.7-1.4v-4.3l11.3-1.4h0.2l1.7,1.4v3.3l-0.1,1.9c1.9-1.7,4.4-3.2,7.5-4.6c3.1-1.4,6.1-2,8.9-2
			c3.3,0,5.9,0.6,7.7,1.9s3.1,3.2,3.8,5.8s1.1,6.1,1.1,10.5v22.1l5.5,0.5v4h-18.7v-3.9l4.9-0.6v-22.2c0-3.1-0.2-5.5-0.6-7.3
			s-1.2-3.1-2.4-4s-2.8-1.3-5.1-1.3c-1.9,0-3.9,0.5-6.1,1.4c-2.2,1-4.1,2-5.8,3.3v29.9l5.4,0.7v3.9h-18.6v-3.9l5-0.7L1424.3,593
			L1424.3,593z"/>
		<path class="st1" d="M1499.1,629.2c-2.6-1.6-4.7-4-6.3-7.3c-1.6-3.3-2.3-7.3-2.3-12.1c0-4.5,0.9-8.6,2.8-12.2
			c1.8-3.7,4.5-6.6,7.9-8.7c3.4-2.1,7.5-3.2,12.2-3.2c2.7,0,5.1,0.3,7.3,0.9v-14.8l-8.1-1v-3.4l14.2-1.4h0.2l1.7,1.3v59.4h4.6v3.6
			c-1.7,0.4-3.2,0.7-4.4,0.9c-1.2,0.2-2.5,0.3-3.9,0.3s-2.3-0.2-2.9-0.7c-0.6-0.5-0.9-1.5-0.9-3v-2.5c-1.5,1.8-3.4,3.3-5.8,4.5
			s-5,1.8-7.8,1.8C1504.7,631.6,1501.8,630.8,1499.1,629.2z M1516.8,624.6c1.8-0.9,3.1-2,4-3.2v-28.9c-0.4-0.6-1.4-1.2-3-1.7
			c-1.6-0.5-3.2-0.8-4.9-0.8c-4.1,0-7.4,1.6-9.8,4.7s-3.7,8-3.7,14.5c0,5.7,1.1,9.9,3.2,12.6s4.9,4.1,8.4,4.1
			C1513,626,1515,625.5,1516.8,624.6z"/>
		<path class="st1" d="M1544.7,625.4c-3.3-4.2-5-9.7-5-16.7c0-4.6,0.9-8.6,2.6-12.1c1.7-3.5,4.2-6.2,7.3-8.1s6.7-2.8,10.7-2.8
			c4.9,0,8.7,1.4,11.4,4.1c2.7,2.7,4.2,6.6,4.3,11.7c0,3.2-0.2,5.7-0.6,7.3h-27.2c0.1,5.2,1.3,9.4,3.6,12.6c2.3,3.2,5.6,4.8,9.9,4.8
			c2.1,0,4.3-0.4,6.6-1.1c2.3-0.8,4.1-1.7,5.3-2.7l1.5,3.5c-1.5,1.6-3.8,3-6.8,4.1s-6.1,1.7-9.2,1.7
			C1552.9,631.6,1548,629.5,1544.7,625.4z M1567.3,604.6c0.2-1.1,0.2-2.2,0.2-3.4c-0.1-3.4-0.8-6.1-2.2-8.1c-1.4-2-3.6-3-6.6-3
			c-3.1,0-5.5,1.1-7.3,3.3c-1.8,2.2-2.9,5.9-3.1,11.1H1567.3z"/>
		<path class="st1" d="M1613,627.9c-4.1-2.5-7.2-6-9.3-10.5c-2.1-4.5-3.2-9.8-3.2-16c0-5.9,1.2-11.1,3.7-15.6s5.9-8,10.2-10.5
			s9.2-3.8,14.5-3.8c4.1,0,8.9,0.6,14.6,1.9l2.6,0.5l-0.8,14.2h-5.3l-2-10c-0.7-0.6-2-1.2-3.8-1.6s-4-0.7-6.7-0.7
			c-3.4,0-6.4,1-9,2.9s-4.7,4.8-6.2,8.5s-2.2,8.2-2.2,13.4c0,5,0.7,9.5,2,13.5c1.3,4,3.3,7.3,6,9.7c2.7,2.4,6,3.6,9.9,3.6
			c2.8,0,4.9-0.2,6.4-0.7c1.5-0.5,2.8-1.2,3.8-2l3.3-7.7l5,0.6l-1.9,11.2c-1.1,0-2.7,0.4-4.9,1.1c-1.9,0.6-3.7,1-5.5,1.4
			s-4,0.5-6.6,0.5C1622,631.6,1617.1,630.4,1613,627.9z"/>
		<path class="st1" d="M1657.9,625.4c-3.3-4.2-5-9.7-5-16.7c0-4.6,0.9-8.6,2.6-12.1c1.7-3.5,4.2-6.2,7.3-8.1s6.7-2.8,10.7-2.8
			c4.9,0,8.7,1.4,11.4,4.1c2.7,2.7,4.2,6.6,4.3,11.7c0,3.2-0.2,5.7-0.6,7.3h-27.2c0.1,5.2,1.3,9.4,3.6,12.6c2.3,3.2,5.6,4.8,9.9,4.8
			c2.1,0,4.3-0.4,6.6-1.1c2.3-0.8,4.1-1.7,5.3-2.7l1.5,3.5c-1.5,1.6-3.8,3-6.8,4.1s-6.1,1.7-9.2,1.7
			C1666.1,631.6,1661.3,629.5,1657.9,625.4z M1680.6,604.6c0.2-1.1,0.2-2.2,0.2-3.4c-0.1-3.4-0.8-6.1-2.2-8.1c-1.4-2-3.6-3-6.6-3
			c-3.1,0-5.5,1.1-7.3,3.3c-1.8,2.2-2.9,5.9-3.1,11.1H1680.6z"/>
		<path class="st1" d="M1700.8,593l-5.7-1.4v-4.3l11.3-1.4h0.2l1.7,1.4v3.3l-0.1,1.9c1.9-1.7,4.4-3.2,7.5-4.6c3.1-1.4,6.1-2,8.9-2
			c3.3,0,5.9,0.6,7.7,1.9s3.1,3.2,3.8,5.8s1.1,6.1,1.1,10.5v22.1l5.5,0.5v4h-18.7v-3.9l4.9-0.6v-22.2c0-3.1-0.2-5.5-0.6-7.3
			s-1.2-3.1-2.4-4s-2.8-1.3-5.1-1.3c-1.9,0-3.9,0.5-6.1,1.4c-2.2,1-4.1,2-5.8,3.3v29.9l5.4,0.7v3.9h-18.6v-3.9l5-0.7L1700.8,593
			L1700.8,593z"/>
		<path class="st1" d="M1755.3,629.5c-1.5-1.4-2.2-3.7-2.2-7v-30.3h-5.7v-3.5c0.3,0,1-0.2,2.2-0.5c1.2-0.3,2-0.6,2.4-0.9
			c0.8-0.5,1.5-1.4,2-2.8c0.4-1,0.9-2.6,1.5-4.8s0.9-3.5,1-4h4.7l0.2,11.4h13.2v5.2h-13.2v24.2c0,3,0.1,5.1,0.3,6.3
			c0.2,1.2,0.6,2,1.2,2.4c0.6,0.4,1.7,0.5,3.1,0.5c1.4,0,3-0.2,4.7-0.5s3-0.8,4-1.2l1.2,3.5c-1.3,1-3.3,1.9-6.1,2.8
			s-5.4,1.3-7.7,1.3C1759,631.5,1756.7,630.8,1755.3,629.5z"/>
		<path class="st1" d="M1780.8,626.9l5.9-0.5V593l-5.7-1.4v-4.3l10.9-1.4h0.2l1.7,1.4v1.4l-0.2,6.2h0.2c0.5-0.9,1.5-2,2.8-3.5
			s3.1-2.7,5.3-3.9s4.5-1.8,7-1.8c1.1,0,1.9,0.1,2.6,0.4v8.8c-0.4-0.3-1-0.5-1.8-0.8c-0.8-0.2-1.7-0.4-2.7-0.4
			c-4.4,0-8.4,1.3-12.2,4v28.4l10,0.6v3.8h-24.2L1780.8,626.9L1780.8,626.9z"/>
		<path class="st1" d="M1819.7,596.4c1.9-3.5,4.5-6.1,7.7-7.9c3.2-1.8,6.6-2.7,10.2-2.7c6.6,0,11.6,2.1,15,6.3c3.3,4.2,5,9.7,5,16.6
			c0,4.8-1,8.9-2.9,12.4c-1.9,3.5-4.5,6.1-7.7,7.9c-3.2,1.8-6.6,2.7-10.2,2.7c-6.6,0-11.6-2.1-15-6.3c-3.3-4.2-5-9.7-5-16.6
			C1816.8,604,1817.8,599.9,1819.7,596.4z M1845.6,622.6c1.9-3,2.9-7.5,2.9-13.3c0-5.8-0.9-10.5-2.7-13.9c-1.8-3.4-4.7-5.1-8.6-5.1
			c-3.6,0-6.4,1.5-8.4,4.5s-3,7.5-3,13.3c0,5.8,0.9,10.5,2.8,13.9c1.8,3.4,4.7,5.1,8.6,5.1C1840.9,627.1,1843.7,625.6,1845.6,622.6z
			"/>
		<path class="st1" d="M1872.2,624.4c0.5,0.8,1.6,1.5,3.4,2.1c1.7,0.6,3.5,1,5.4,1c3,0,5.2-0.6,6.6-1.7s2.1-2.8,2.1-4.8
			c0-1.4-0.4-2.7-1.3-3.7c-0.9-1-2.2-2-3.8-2.8c-1.6-0.8-3.9-1.8-6.9-3c-4.1-1.5-7-3.4-8.9-5.5c-1.9-2.1-2.8-4.9-2.8-8.4
			c0-2.3,0.7-4.3,2.1-6.1s3.3-3.1,5.8-4.1c2.4-1,5.2-1.5,8.2-1.5c2.4,0,4.5,0.2,6.4,0.5c1.8,0.4,3.3,0.7,4.4,1.1s1.8,0.6,2.2,0.7
			v9.8h-4.8l-1.6-5.8c-0.3-0.6-1.2-1.2-2.5-1.6s-2.9-0.7-4.6-0.7c-2.4,0-4.3,0.5-5.7,1.6s-2.2,2.5-2.2,4.3c0,1.6,0.4,2.9,1.2,3.9
			c0.8,1,1.7,1.9,2.9,2.5s2.7,1.4,4.7,2.2l1.6,0.6c2.9,1.2,5.3,2.3,7.2,3.3c1.8,1,3.4,2.4,4.6,4.2s1.9,3.8,1.9,6.3
			c0,3.9-1.5,7-4.5,9.3s-7.2,3.5-12.4,3.5c-2.6,0-5.3-0.4-8.1-1.1c-2.8-0.7-5.1-1.4-6.9-2.2v-10.1h5.1L1872.2,624.4z"/>
		<path class="st1" d="M1059.5,724c-2.6-1.6-4.7-4-6.3-7.3c-1.6-3.3-2.3-7.3-2.3-12.1c0-4.5,0.9-8.6,2.8-12.2
			c1.8-3.7,4.5-6.6,7.9-8.7c3.4-2.1,7.5-3.2,12.2-3.2c2.7,0,5.1,0.3,7.3,0.9v-14.8l-8.1-1v-3.4l14.2-1.4h0.2l1.7,1.3v59.4h4.6v3.6
			c-1.7,0.4-3.2,0.7-4.4,0.9c-1.2,0.2-2.5,0.3-3.9,0.3s-2.3-0.2-2.9-0.7c-0.6-0.5-0.9-1.5-0.9-3v-2.5c-1.5,1.8-3.4,3.3-5.8,4.5
			c-2.4,1.2-5,1.8-7.8,1.8C1065,726.4,1062.1,725.6,1059.5,724z M1077.1,719.4c1.8-0.9,3.1-2,4-3.2v-28.9c-0.4-0.6-1.4-1.2-3-1.7
			c-1.6-0.5-3.2-0.8-4.9-0.8c-4.1,0-7.4,1.6-9.8,4.7s-3.7,8-3.7,14.5c0,5.7,1.1,9.9,3.2,12.6s4.9,4.1,8.4,4.1
			C1073.4,720.8,1075.3,720.3,1077.1,719.4z"/>
		<path class="st1" d="M1105,720.2c-3.3-4.2-5-9.7-5-16.7c0-4.6,0.9-8.6,2.6-12.1c1.7-3.5,4.2-6.2,7.3-8.1c3.1-1.9,6.7-2.8,10.7-2.8
			c4.9,0,8.7,1.4,11.4,4.1c2.7,2.7,4.2,6.6,4.3,11.7c0,3.2-0.2,5.7-0.6,7.3h-27.2c0.1,5.2,1.3,9.4,3.6,12.6c2.3,3.2,5.6,4.8,9.9,4.8
			c2.1,0,4.3-0.4,6.6-1.1c2.3-0.8,4.1-1.7,5.3-2.7l1.5,3.5c-1.5,1.6-3.8,3-6.8,4.1s-6.1,1.7-9.2,1.7
			C1113.2,726.4,1108.3,724.3,1105,720.2z M1127.6,699.4c0.2-1.1,0.2-2.2,0.2-3.4c-0.1-3.4-0.8-6.1-2.2-8.1c-1.4-2-3.6-3-6.6-3
			c-3.1,0-5.5,1.1-7.3,3.3c-1.8,2.2-2.9,5.9-3.1,11.1H1127.6z"/>
		<path class="st1" d="M1168.5,671.7l-6.8-1v-4h42.2l0.8,13.4h-5.1l-2.4-8.8l-20.3-0.5v22.9l14.3-0.2l1.3-6.6h4.2v18.5h-4.1
			l-1.4-6.9l-14.3-0.3v22.5l12.3,0.8v3.9h-27.1v-3.9l6.3-0.8L1168.5,671.7L1168.5,671.7z"/>
		<path class="st1" d="M1213.6,691.2c1.9-3.5,4.5-6.1,7.7-7.9c3.2-1.8,6.6-2.7,10.2-2.7c6.6,0,11.6,2.1,15,6.3c3.3,4.2,5,9.7,5,16.6
			c0,4.8-1,8.9-2.9,12.4c-1.9,3.5-4.5,6.1-7.7,7.9c-3.2,1.8-6.6,2.7-10.2,2.7c-6.6,0-11.6-2.1-15-6.3c-3.3-4.2-5-9.7-5-16.6
			C1210.7,698.8,1211.7,694.6,1213.6,691.2z M1239.5,717.4c1.9-3,2.9-7.5,2.9-13.3c0-5.8-0.9-10.5-2.7-13.9
			c-1.8-3.4-4.7-5.1-8.6-5.1c-3.6,0-6.4,1.5-8.4,4.5s-3,7.5-3,13.3c0,5.8,0.9,10.5,2.8,13.9c1.8,3.4,4.7,5.1,8.6,5.1
			C1234.8,721.9,1237.6,720.4,1239.5,717.4z"/>
		<path class="st1" d="M1258.9,721.7l5.9-0.5v-33.4l-5.7-1.4v-4.3l10.9-1.4h0.2l1.7,1.4v1.4l-0.2,6.2h0.2c0.5-0.9,1.5-2,2.8-3.5
			s3.1-2.7,5.3-3.9s4.5-1.8,7-1.8c1.1,0,1.9,0.1,2.6,0.4v8.8c-0.4-0.3-1-0.5-1.8-0.8c-0.8-0.2-1.7-0.4-2.7-0.4
			c-4.4,0-8.4,1.3-12.2,4v28.4l10,0.6v3.8h-24.2L1258.9,721.7L1258.9,721.7z"/>
		<path class="st1" d="M1294.8,721.7l4.8-0.7v-33.2l-5.7-1.4v-4.3l11.3-1.4l1.4,1l0.5,3.2l-0.1,2.5c1.8-1.7,4.4-3.2,7.5-4.6
			c3.2-1.4,6-2.1,8.6-2.1c2.8,0,5.1,0.5,6.9,1.4s3.1,2.4,3.9,4.4c1.7-1.4,4-2.8,7.1-4c3-1.2,5.9-1.9,8.5-1.9c3.3,0,5.8,0.6,7.7,1.9
			c1.8,1.2,3.2,3.2,3.9,5.8c0.8,2.6,1.1,6.1,1.1,10.5V721l5.7,0.7v3.9h-18.8v-3.9l4.9-0.7v-22c0-3-0.2-5.5-0.7-7.3
			c-0.4-1.8-1.3-3.2-2.5-4.1c-1.2-0.9-3-1.3-5.3-1.3c-1.7,0-3.6,0.4-5.5,1.2c-1.9,0.8-3.6,1.7-5,2.7c0.5,2,0.7,5,0.7,8.8v22l5.6,0.7
			v3.9h-19.1v-3.9l5.2-0.7v-22.1c0-3.2-0.2-5.6-0.6-7.3s-1.2-3-2.2-3.9c-1.1-0.9-2.8-1.3-5.1-1.3c-1.9,0-3.9,0.5-6,1.4s-4,2-5.6,3.3
			V721l5.3,0.7v3.9h-18.4L1294.8,721.7L1294.8,721.7z"/>
		<path class="st1" d="M1380.9,702.7c4.9-2.3,11.2-3.6,18.8-3.8v-2.2c0-2.5-0.3-4.4-0.8-5.8c-0.5-1.4-1.4-2.5-2.7-3.1
			c-1.3-0.7-3.1-1-5.5-1c-2.7,0-5.1,0.4-7.2,1.1c-2.1,0.8-4.2,1.7-6.4,2.8l-2-4.1c0.7-0.6,1.9-1.3,3.8-2.3c1.8-1,4-1.8,6.4-2.5
			c2.4-0.7,4.8-1.1,7.3-1.1c3.7,0,6.7,0.5,8.9,1.5c2.2,1,3.8,2.7,4.7,4.9c0.9,2.3,1.4,5.3,1.4,9.1v25.3h4.7v3.5
			c-1.1,0.3-2.4,0.5-4,0.8c-1.6,0.3-3,0.4-4.2,0.4c-1.5,0-2.5-0.2-3-0.7c-0.5-0.5-0.8-1.4-0.8-3v-2.6c-1.6,1.6-3.5,3-5.8,4.3
			c-2.3,1.3-4.9,2-7.8,2c-3.8,0-6.9-1.1-9.4-3.3c-2.5-2.2-3.8-5.3-3.8-9.4C1373.5,708.7,1376,705.1,1380.9,702.7z M1394.8,719.8
			c1.8-0.8,3.4-1.8,4.9-3v-13.6c-5.7,0-10.1,0.9-13,2.7c-2.9,1.8-4.4,4.1-4.4,6.9c0,2.8,0.7,4.9,2.1,6.3s3.3,2,5.7,2
			C1391.4,721,1393,720.6,1394.8,719.8z"/>
		<path class="st1" d="M1419.4,692c1.7-3.5,4.2-6.3,7.6-8.4c3.3-2.1,7.4-3.1,12-3.1c2.3,0,4.2,0.2,5.8,0.6s3.6,1,5.8,1.7l-0.3,12.2
			h-5.1l-1.7-8.1c-0.3-1.5-2.3-2.2-6-2.2c-3.7,0-6.6,1.5-8.7,4.5c-2.1,3-3.2,7.2-3.2,12.7c0,6.2,1.2,10.9,3.6,14.2s5.5,4.9,9.4,4.9
			c2.2,0,4.3-0.3,6.3-1c2-0.7,3.7-1.5,5.1-2.5l1.5,3.2c-1.4,1.5-3.5,2.8-6.3,4c-2.8,1.2-5.6,1.8-8.4,1.8c-4.3,0-8-1-10.9-2.9
			s-5.2-4.6-6.7-8s-2.2-7.2-2.2-11.6C1416.8,699.5,1417.7,695.6,1419.4,692z"/>
		<path class="st1" d="M1464.5,687.8l-6-1.4v-4.2l12.2-1.5h0.2l1.8,1.4V721l6.3,0.6v3.9h-20.9v-3.9l6.4-0.7L1464.5,687.8
			L1464.5,687.8z M1463.8,672.4c-0.8-1-1.3-2.2-1.3-3.6c0-1.7,0.5-3.1,1.5-4.2s2.4-1.7,4.2-1.7s3.1,0.5,3.9,1.4s1.3,2.2,1.3,3.6
			c0,1.8-0.5,3.2-1.5,4.3c-1,1-2.5,1.6-4.3,1.6h-0.1C1465.9,673.8,1464.7,673.3,1463.8,672.4z"/>
		<path class="st1" d="M1487.5,691.2c1.9-3.5,4.5-6.1,7.7-7.9c3.2-1.8,6.6-2.7,10.2-2.7c6.6,0,11.6,2.1,15,6.3c3.3,4.2,5,9.7,5,16.6
			c0,4.8-1,8.9-2.9,12.4c-1.9,3.5-4.5,6.1-7.7,7.9c-3.2,1.8-6.6,2.7-10.2,2.7c-6.6,0-11.6-2.1-15-6.3c-3.3-4.2-5-9.7-5-16.6
			C1484.6,698.8,1485.6,694.6,1487.5,691.2z M1513.4,717.4c1.9-3,2.9-7.5,2.9-13.3c0-5.8-0.9-10.5-2.7-13.9
			c-1.8-3.4-4.7-5.1-8.6-5.1c-3.6,0-6.4,1.5-8.4,4.5s-3,7.5-3,13.3c0,5.8,0.9,10.5,2.8,13.9c1.8,3.4,4.7,5.1,8.6,5.1
			C1508.7,721.9,1511.5,720.4,1513.4,717.4z M1499,671.3l12.6-15.7l6,5c-1.1,1.8-3.5,4.2-7.1,7.3c-3.6,3.1-6.4,5.1-8.4,5.9
			L1499,671.3z"/>
		<path class="st1" d="M1537.4,687.8l-5.7-1.4v-4.3l11.3-1.4h0.2l1.7,1.4v3.3l-0.1,1.9c1.9-1.7,4.4-3.2,7.5-4.6c3.1-1.4,6.1-2,8.9-2
			c3.3,0,5.9,0.6,7.7,1.9s3.1,3.2,3.8,5.8s1.1,6.1,1.1,10.5V721l5.5,0.5v4h-18.7v-3.9l4.9-0.6v-22.2c0-3.1-0.2-5.5-0.6-7.3
			s-1.2-3.1-2.4-4s-2.8-1.3-5.1-1.3c-1.9,0-3.9,0.5-6.1,1.4c-2.2,1-4.1,2-5.8,3.3V721l5.4,0.7v3.9h-18.6v-3.9l5-0.7L1537.4,687.8
			L1537.4,687.8z"/>
		<path class="st1" d="M1610.6,671.7l-6.2-1v-4h10.5c1.9,0,3.8-0.1,5.6-0.2c2.8-0.2,5.5-0.3,8.1-0.3c7.6,0,13,1.5,16.2,4.3
			c3.2,2.8,4.7,7,4.7,12.6c0,4.2-1,7.9-2.9,11c-1.9,3.1-4.7,5.5-8.1,7.1c-3.4,1.6-7.4,2.5-11.9,2.5c-1.5,0-3.1,0-4.7-0.1
			c-1.6-0.1-2.6-0.1-2.9-0.2v17.4l10.8,0.9v3.9H1604v-3.9l6.6-0.8L1610.6,671.7L1610.6,671.7z M1626.6,699.5c4.2,0,7.5-1.3,10.2-3.8
			c2.6-2.5,3.9-6.7,3.9-12.4c0-4.5-1.1-7.8-3.4-9.8c-2.3-2-5.8-3-10.6-3c-1.7,0-3.5,0.1-5.4,0.3c-1.2,0.1-1.9,0.2-2.3,0.2v28
			C1620.5,699.3,1623,699.5,1626.6,699.5z"/>
		<path class="st1" d="M1655.2,721.7l5.9-0.5v-33.4l-5.7-1.4v-4.3l10.9-1.4h0.2l1.7,1.4v1.4l-0.2,6.2h0.2c0.5-0.9,1.5-2,2.8-3.5
			s3.1-2.7,5.3-3.9s4.5-1.8,7-1.8c1.1,0,1.9,0.1,2.6,0.4v8.8c-0.4-0.3-1-0.5-1.8-0.8c-0.8-0.2-1.7-0.4-2.7-0.4
			c-4.4,0-8.4,1.3-12.2,4v28.4l10,0.6v3.8h-24.2L1655.2,721.7L1655.2,721.7z"/>
		<path class="st1" d="M1694.1,691.2c1.9-3.5,4.5-6.1,7.7-7.9c3.2-1.8,6.6-2.7,10.2-2.7c6.6,0,11.6,2.1,15,6.3c3.3,4.2,5,9.7,5,16.6
			c0,4.8-1,8.9-2.9,12.4c-1.9,3.5-4.5,6.1-7.7,7.9c-3.2,1.8-6.6,2.7-10.2,2.7c-6.6,0-11.6-2.1-15-6.3c-3.3-4.2-5-9.7-5-16.6
			C1691.2,698.8,1692.2,694.6,1694.1,691.2z M1720,717.4c1.9-3,2.9-7.5,2.9-13.3c0-5.8-0.9-10.5-2.7-13.9c-1.8-3.4-4.7-5.1-8.6-5.1
			c-3.6,0-6.4,1.5-8.4,4.5s-3,7.5-3,13.3c0,5.8,0.9,10.5,2.8,13.9c1.8,3.4,4.7,5.1,8.6,5.1C1715.3,721.9,1718.1,720.4,1720,717.4z"
			/>
		<path class="st1" d="M1745.5,686.9h-7.4v-3.6l7.4-1.5v-3.7c0-3.3,0.9-6.3,2.6-9s3.9-4.9,6.7-6.5c2.8-1.6,5.7-2.4,8.8-2.4
			c1.8,0,3.3,0.2,4.7,0.7v7.9c-0.5-0.4-1.4-0.8-2.8-1.2c-1.4-0.4-2.9-0.6-4.6-0.6c-2.5,0-4.3,0.7-5.4,1.9s-1.7,3.5-1.7,6.7v6.2h10.9
			v5.1h-10.9V721l8.8,0.6v3.9h-23.7v-3.9l6.7-0.7L1745.5,686.9L1745.5,686.9z"/>
		<path class="st1" d="M1775.7,720.2c-3.3-4.2-5-9.7-5-16.7c0-4.6,0.9-8.6,2.6-12.1c1.7-3.5,4.2-6.2,7.3-8.1s6.7-2.8,10.7-2.8
			c4.9,0,8.7,1.4,11.4,4.1c2.7,2.7,4.2,6.6,4.3,11.7c0,3.2-0.2,5.7-0.6,7.3h-27.2c0.1,5.2,1.3,9.4,3.6,12.6c2.3,3.2,5.6,4.8,9.9,4.8
			c2.1,0,4.3-0.4,6.6-1.1c2.3-0.8,4.1-1.7,5.3-2.7l1.5,3.5c-1.5,1.6-3.8,3-6.8,4.1s-6.1,1.7-9.2,1.7
			C1783.9,726.4,1779,724.3,1775.7,720.2z M1798.3,699.4c0.2-1.1,0.2-2.2,0.2-3.4c-0.1-3.4-0.8-6.1-2.2-8.1c-1.4-2-3.6-3-6.6-3
			c-3.1,0-5.5,1.1-7.3,3.3c-1.8,2.2-2.9,5.9-3.1,11.1H1798.3z"/>
		<path class="st1" d="M1821.1,719.2c0.5,0.8,1.6,1.5,3.4,2.1c1.7,0.6,3.5,1,5.4,1c3,0,5.2-0.6,6.6-1.7s2.1-2.8,2.1-4.8
			c0-1.4-0.4-2.7-1.3-3.7c-0.9-1-2.2-2-3.8-2.8c-1.6-0.8-3.9-1.8-6.9-3c-4.1-1.5-7-3.4-8.9-5.5c-1.9-2.1-2.8-4.9-2.8-8.4
			c0-2.3,0.7-4.3,2.1-6.1s3.3-3.1,5.8-4.1c2.4-1,5.2-1.5,8.2-1.5c2.4,0,4.5,0.2,6.4,0.5c1.8,0.4,3.3,0.7,4.4,1.1s1.8,0.6,2.2,0.7
			v9.8h-4.8l-1.6-5.8c-0.3-0.6-1.2-1.2-2.5-1.6s-2.9-0.7-4.6-0.7c-2.4,0-4.3,0.5-5.7,1.6s-2.2,2.5-2.2,4.3c0,1.6,0.4,2.9,1.2,3.9
			c0.8,1,1.7,1.9,2.9,2.5s2.7,1.4,4.7,2.2l1.6,0.6c2.9,1.2,5.3,2.3,7.2,3.3c1.8,1,3.4,2.4,4.6,4.2s1.9,3.8,1.9,6.3
			c0,3.9-1.5,7-4.5,9.3s-7.2,3.5-12.4,3.5c-2.6,0-5.3-0.4-8.1-1.1c-2.8-0.7-5.1-1.4-6.9-2.2v-10.1h5.1L1821.1,719.2z"/>
		<path class="st1" d="M1859.8,687.8l-6-1.4v-4.2l12.2-1.5h0.2l1.8,1.4V721l6.3,0.6v3.9h-20.9v-3.9l6.4-0.7L1859.8,687.8
			L1859.8,687.8z M1859.2,672.4c-0.8-1-1.3-2.2-1.3-3.6c0-1.7,0.5-3.1,1.5-4.2s2.4-1.7,4.2-1.7s3.1,0.5,3.9,1.4s1.3,2.2,1.3,3.6
			c0,1.8-0.5,3.2-1.5,4.3c-1,1-2.5,1.6-4.3,1.6h-0.1C1861.3,673.8,1860,673.3,1859.2,672.4z"/>
		<path class="st1" d="M1882.9,691.2c1.9-3.5,4.5-6.1,7.7-7.9c3.2-1.8,6.6-2.7,10.2-2.7c6.6,0,11.6,2.1,15,6.3c3.3,4.2,5,9.7,5,16.6
			c0,4.8-1,8.9-2.9,12.4c-1.9,3.5-4.5,6.1-7.7,7.9c-3.2,1.8-6.6,2.7-10.2,2.7c-6.6,0-11.6-2.1-15-6.3c-3.3-4.2-5-9.7-5-16.6
			C1880,698.8,1880.9,694.6,1882.9,691.2z M1908.8,717.4c1.9-3,2.9-7.5,2.9-13.3c0-5.8-0.9-10.5-2.7-13.9c-1.8-3.4-4.7-5.1-8.6-5.1
			c-3.6,0-6.4,1.5-8.4,4.5s-3,7.5-3,13.3c0,5.8,0.9,10.5,2.8,13.9c1.8,3.4,4.7,5.1,8.6,5.1C1904.1,721.9,1906.8,720.4,1908.8,717.4z
			"/>
		<path class="st1" d="M1932.7,687.8l-5.7-1.4v-4.3l11.3-1.4h0.2l1.7,1.4v3.3l-0.1,1.9c1.9-1.7,4.4-3.2,7.5-4.6c3.1-1.4,6.1-2,8.9-2
			c3.3,0,5.9,0.6,7.7,1.9s3.1,3.2,3.8,5.8s1.1,6.1,1.1,10.5V721l5.5,0.5v4H1956v-3.9l4.9-0.6v-22.2c0-3.1-0.2-5.5-0.6-7.3
			s-1.2-3.1-2.4-4s-2.8-1.3-5.1-1.3c-1.9,0-3.9,0.5-6.1,1.4c-2.2,1-4.1,2-5.8,3.3V721l5.4,0.7v3.9h-18.6v-3.9l5-0.7L1932.7,687.8
			L1932.7,687.8z"/>
		<path class="st1" d="M1987.8,702.7c4.9-2.3,11.2-3.6,18.8-3.8v-2.2c0-2.5-0.3-4.4-0.8-5.8c-0.5-1.4-1.4-2.5-2.7-3.1
			c-1.3-0.7-3.1-1-5.5-1c-2.7,0-5.1,0.4-7.2,1.1c-2.1,0.8-4.2,1.7-6.4,2.8l-2-4.1c0.7-0.6,1.9-1.3,3.8-2.3c1.8-1,4-1.8,6.4-2.5
			c2.4-0.7,4.8-1.1,7.3-1.1c3.7,0,6.7,0.5,8.9,1.5c2.2,1,3.8,2.7,4.7,4.9c0.9,2.3,1.4,5.3,1.4,9.1v25.3h4.7v3.5
			c-1.1,0.3-2.4,0.5-4,0.8c-1.6,0.3-3,0.4-4.2,0.4c-1.5,0-2.5-0.2-3-0.7c-0.5-0.5-0.8-1.4-0.8-3v-2.6c-1.6,1.6-3.5,3-5.8,4.3
			c-2.3,1.3-4.9,2-7.8,2c-3.8,0-6.9-1.1-9.4-3.3c-2.5-2.2-3.8-5.3-3.8-9.4C1980.4,708.7,1982.9,705.1,1987.8,702.7z M2001.8,719.8
			c1.8-0.8,3.4-1.8,4.9-3v-13.6c-5.7,0-10.1,0.9-13,2.7c-2.9,1.8-4.4,4.1-4.4,6.9c0,2.8,0.7,4.9,2.1,6.3s3.3,2,5.7,2
			C1998.4,721,2000,720.6,2001.8,719.8z"/>
		<path class="st1" d="M2030.5,666.6l-6.4-0.9v-3.4l12.7-1.5h0.2l1.7,1.2v59l6.7,0.6v3.9h-21.3v-3.9l6.4-0.7L2030.5,666.6
			L2030.5,666.6z"/>
	</g>
	<g>
		<path class="st0" d="M644.2,365.1L618,319.7l0.1,0l-47.2-81.7c0,0-0.3-0.6-0.8-1.4c-0.1-0.1-0.2-0.2-0.2-0.3l-3.1-5.4
			c-13.5-23.4-38.5-37.8-65.5-37.8h-155c-27,0-52,14.5-65.5,37.8l-77.5,134.2c-6.7,11.7-10.1,24.7-10.1,37.8
			c0,10.7,2.4,21.3,6.9,31.2l33.6-58.3l0,0l35.3-61.2l0.5-0.8l38.7-67.1c7.9-13.6,22.4-22,38.1-22h155c15.7,0,30.2,8.4,38.1,22
			L616.7,381c7.8,13.5,7.8,30.4,0,44l-77.5,134.2c-7.8,13.6-22.4,22-38.1,22h-155c-1.9,0-3.8-0.2-5.7-0.4l37.8-65.4l99.3,0.1
			c6.7,0,12.9-3.6,16.2-9.4l54.9-95.1c3.3-5.8,3.3-12.9,0-18.6l-54.1-93.6c-3.3-5.8-9.5-9.3-16.1-9.3l-110.5-0.1
			c-5.2,0-10,2.8-12.6,7.3L341.2,321l125.4,0.1c2.6,0,5.1,1.4,6.4,3.7l42.4,73.2c1.3,2.3,1.3,5.1,0,7.4L472.2,480
			c-1.3,2.3-3.8,3.7-6.4,3.7l-105.7-0.1l-47.4,81.9c0,0,0,0,0,0l-16.4,28.3c13.6,12,31.3,19,49.9,19h155c27,0,52-14.4,65.5-37.8
			l77.5-134.2C657.7,417.4,657.7,388.5,644.2,365.1z"/>
		<path class="st0" d="M324.7,418.2l98.7-0.3c6.8,0,13.1-3.7,16.6-9.6l12.8-22.1l-138.6,0.3c-6.7,0-12.9,3.6-16.2,9.4l-60.5,104.6
			l18.4,31.5l64.1-111C321,419.2,322.8,418.2,324.7,418.2z"/>
	</g>
</g>
</svg>
