<?xml version="1.0" encoding="utf-8"?>
<!-- Generator: Adobe Illustrator 23.0.2, SVG Export Plug-In . SVG Version: 6.00 Build 0)  -->
<svg version="1.1" id="Capa_1" xmlns="http://www.w3.org/2000/svg" xmlns:xlink="http://www.w3.org/1999/xlink" x="0px" y="0px"
	 viewBox="0 0 1358.89 806.8" style="enable-background:new 0 0 1358.89 806.8;" xml:space="preserve">
<style type="text/css">
	.st0{fill:#0055B8;}
	.st1{fill:#FFFFFF;}
	.st2{fill:#A1B1C8;}
</style>
<g>
	<g>
		<g>
			<path class="st0" d="M744.22,322.85H852.5v25.1h-76.01v39.45h67.17v24.86h-67.17v64.54h-32.27V322.85z"/>
			<path class="st0" d="M889.31,322.85h72.19c17.37,0,30.52,4.86,39.44,14.58c8.93,9.72,13.39,22.56,13.39,38.49
				c0,10.36-2.19,19.52-6.57,27.49c-4.39,7.97-10.64,14.15-18.76,18.53c-8.12,4.39-17.61,6.57-28.45,6.57h-38.96v48.29h-32.27
				V322.85z M953.85,402.93c9.08,0,16.01-2.39,20.79-7.17c4.79-4.78,7.18-11.39,7.18-19.84c0-8.93-2.24-15.74-6.7-20.44
				c-4.46-4.7-11.15-7.05-20.07-7.05h-33.47v54.5H953.85z"/>
			<path class="st2" d="M1051.38,322.85h110.43v25.1h-78.16v39.45h69.32v24.86h-69.32v39.68h78.16v24.86h-110.43V322.85z"/>
		</g>
	</g>
	<g>
		<path class="st0" d="M644.16,365.11l-26.19-45.37l0.09-0.01l-47.16-81.68c0,0-0.33-0.55-0.85-1.42c-0.07-0.11-0.17-0.19-0.24-0.3
			l-3.14-5.44c-13.52-23.41-38.49-37.83-65.52-37.83l-154.98,0c-26.95,0-52.05,14.5-65.51,37.83l-77.49,134.22
			c-6.73,11.66-10.1,24.74-10.1,37.82c0,10.67,2.37,21.31,6.85,31.22l33.64-58.26l0,0l35.33-61.2l0.49-0.84l38.74-67.1
			c7.85-13.6,22.36-21.98,38.06-21.98l154.99,0c15.7,0,30.21,8.38,38.06,21.97l77.49,134.21c7.82,13.54,7.83,30.38,0,43.95
			l-77.49,134.21c-7.85,13.6-22.36,21.98-38.06,21.98l-154.99,0c-1.92,0-3.82-0.17-5.7-0.42l37.75-65.38l99.32,0.09
			c6.7,0.01,12.89-3.57,16.24-9.37l54.87-95.12c3.33-5.76,3.32-12.86-0.01-18.63l-54.06-93.56c-3.33-5.75-9.46-9.3-16.11-9.31
			l-110.55-0.11c-5.2-0.01-10.01,2.76-12.61,7.27l-14.13,24.42l125.39,0.12c2.63,0,5.06,1.4,6.37,3.68l42.38,73.24
			c1.32,2.28,1.32,5.1,0,7.38l-43.13,74.58c-1.32,2.28-3.75,3.68-6.39,3.68l-105.74-0.1l-47.39,81.88c0,0,0,0-0.01-0.01
			l-16.37,28.35c13.63,11.97,31.26,19.01,49.88,19.01l154.99,0c27.03,0,52-14.42,65.51-37.82l77.5-134.23
			C657.67,417.35,657.67,388.51,644.16,365.11z"/>
		<path class="st0" d="M324.72,418.16l98.73-0.32c6.84-0.02,13.15-3.68,16.57-9.6l12.77-22.13l-138.56,0.32
			c-6.69-0.01-12.88,3.56-16.23,9.35l-60.5,104.6l18.43,31.49l64.09-111.01C320.99,419.19,322.78,418.16,324.72,418.16z"/>
	</g>
</g>
</svg>
