<?xml version="1.0" encoding="utf-8"?>
<!-- Generator: Adobe Illustrator 23.0.2, SVG Export Plug-In . SVG Version: 6.00 Build 0)  -->
<svg version="1.1" id="Capa_1" xmlns="http://www.w3.org/2000/svg" xmlns:xlink="http://www.w3.org/1999/xlink" x="0px" y="0px"
	 viewBox="0 0 2500.37 806.8" style="enable-background:new 0 0 2500.37 806.8;" xml:space="preserve">
<style type="text/css">
	.st0{fill:#0055B8;}
	.st1{fill:#FFFFFF;}
	.st2{fill:#A1B1C8;}
</style>
<g>
	<g>
		<g>
			<path class="st0" d="M744.22,322.85H852.5v25.1h-76.01v39.45h67.17v24.86h-67.17v64.54h-32.27V322.85z"/>
			<path class="st0" d="M889.31,322.85h72.19c17.37,0,30.52,4.86,39.44,14.58c8.93,9.72,13.39,22.56,13.39,38.49
				c0,10.36-2.19,19.52-6.57,27.49c-4.39,7.97-10.64,14.15-18.76,18.53c-8.12,4.39-17.61,6.57-28.45,6.57h-38.96v48.29h-32.27
				V322.85z M953.85,402.93c9.08,0,16.01-2.39,20.79-7.17c4.79-4.78,7.18-11.39,7.18-19.84c0-8.93-2.24-15.74-6.7-20.44
				c-4.46-4.7-11.15-7.05-20.07-7.05h-33.47v54.5H953.85z"/>
			<path class="st2" d="M1051.38,322.85h110.43v25.1h-78.16v39.45h69.32v24.86h-69.32v39.68h78.16v24.86h-110.43V322.85z"/>
		</g>
	</g>
	<g>
		<path class="st0" d="M644.16,365.11l-26.19-45.37l0.09-0.01l-47.16-81.68c0,0-0.33-0.55-0.85-1.42c-0.07-0.11-0.17-0.19-0.24-0.3
			l-3.14-5.44c-13.52-23.41-38.49-37.83-65.52-37.83l-154.98,0c-26.95,0-52.05,14.5-65.51,37.83l-77.49,134.22
			c-6.73,11.66-10.1,24.74-10.1,37.82c0,10.67,2.37,21.31,6.85,31.22l33.64-58.26l0,0l35.33-61.2l0.49-0.84l38.74-67.1
			c7.85-13.6,22.36-21.98,38.06-21.98l154.99,0c15.7,0,30.21,8.38,38.06,21.97l77.49,134.21c7.82,13.54,7.83,30.38,0,43.95
			l-77.49,134.21c-7.85,13.6-22.36,21.98-38.06,21.98l-154.99,0c-1.92,0-3.82-0.17-5.7-0.42l37.75-65.38l99.32,0.09
			c6.7,0.01,12.89-3.57,16.24-9.37l54.87-95.12c3.33-5.76,3.32-12.86-0.01-18.63l-54.06-93.56c-3.33-5.75-9.46-9.3-16.11-9.31
			l-110.55-0.11c-5.2-0.01-10.01,2.76-12.61,7.27l-14.13,24.42l125.39,0.12c2.63,0,5.06,1.4,6.37,3.68l42.38,73.24
			c1.32,2.28,1.32,5.1,0,7.38l-43.13,74.58c-1.32,2.28-3.75,3.68-6.39,3.68l-105.74-0.1l-47.39,81.88c0,0,0,0-0.01-0.01
			l-16.37,28.35c13.63,11.97,31.26,19.01,49.88,19.01l154.99,0c27.03,0,52-14.42,65.51-37.82l77.5-134.23
			C657.67,417.35,657.67,388.51,644.16,365.11z"/>
		<path class="st0" d="M324.72,418.16l98.73-0.32c6.84-0.02,13.15-3.68,16.57-9.6l12.77-22.13l-138.56,0.32
			c-6.69-0.01-12.88,3.56-16.23,9.35l-60.5,104.6l18.43,31.49l64.09-111.01C320.99,419.19,322.78,418.16,324.72,418.16z"/>
	</g>
</g>
<g>
	<path class="st2" d="M1342.9,322.78h8.69l19.19,54.5l4.9,0.79v3.87h-20.85v-3.87l6.55-0.79l-3.71-11.69h-23.06l-3.71,11.69
		l6.79,0.79v3.87h-18.72v-3.87l4.9-0.79L1342.9,322.78z M1347.88,335.42l-1.97-6.95l-1.9,7.11l-7.98,25.35h20.14L1347.88,335.42z"/>
	<path class="st2" d="M1385.55,375.62c0.53,0.79,1.64,1.5,3.36,2.13c1.71,0.63,3.51,0.95,5.41,0.95c3,0,5.21-0.58,6.63-1.74
		c1.42-1.16,2.13-2.76,2.13-4.82c0-1.42-0.45-2.66-1.34-3.71c-0.9-1.05-2.15-1.99-3.75-2.8c-1.61-0.82-3.91-1.8-6.91-2.96
		c-4.05-1.53-7.02-3.36-8.88-5.49c-1.87-2.13-2.8-4.94-2.8-8.41c0-2.32,0.7-4.34,2.09-6.08c1.39-1.74,3.32-3.09,5.77-4.07
		c2.45-0.97,5.17-1.46,8.17-1.46c2.42,0,4.54,0.19,6.36,0.55c1.82,0.37,3.28,0.74,4.38,1.11s1.84,0.61,2.21,0.71v9.79h-4.82
		l-1.58-5.84c-0.32-0.63-1.16-1.17-2.53-1.62c-1.37-0.45-2.9-0.67-4.58-0.67c-2.37,0-4.28,0.53-5.73,1.58
		c-1.45,1.05-2.17,2.48-2.17,4.26c0,1.58,0.38,2.88,1.14,3.91c0.76,1.03,1.72,1.86,2.88,2.49s2.74,1.37,4.74,2.21l1.58,0.63
		c2.95,1.16,5.34,2.26,7.19,3.32c1.84,1.05,3.38,2.44,4.62,4.15c1.24,1.71,1.86,3.8,1.86,6.28c0,3.9-1.51,7-4.54,9.32
		c-3.03,2.32-7.17,3.48-12.44,3.48c-2.58,0-5.28-0.36-8.09-1.07c-2.82-0.71-5.12-1.43-6.91-2.17v-10.11h5.13L1385.55,375.62z"/>
	<path class="st2" d="M1421.01,347.58c1.95-3.48,4.51-6.12,7.7-7.94c3.19-1.82,6.59-2.72,10.23-2.72c6.63,0,11.62,2.11,14.97,6.32
		c3.34,4.21,5.02,9.74,5.02,16.58c0,4.79-0.97,8.92-2.92,12.4c-1.95,3.48-4.51,6.11-7.7,7.9c-3.19,1.79-6.59,2.69-10.23,2.69
		c-6.63,0-11.62-2.11-14.97-6.32c-3.34-4.21-5.01-9.74-5.01-16.59C1418.09,355.16,1419.06,351.06,1421.01,347.58z M1446.91,373.8
		c1.95-3,2.92-7.45,2.92-13.35c0-5.84-0.9-10.48-2.69-13.9c-1.79-3.42-4.66-5.13-8.61-5.13c-3.63,0-6.44,1.5-8.41,4.5
		s-2.96,7.45-2.96,13.35c0,5.84,0.92,10.48,2.76,13.9c1.84,3.42,4.71,5.13,8.61,5.13C1442.17,378.31,1444.96,376.8,1446.91,373.8z"
		/>
	<path class="st2" d="M1467.72,348.45c1.71-3.53,4.24-6.33,7.58-8.41c3.34-2.08,7.36-3.12,12.04-3.12c2.26,0,4.21,0.21,5.84,0.63
		c1.63,0.42,3.58,1,5.84,1.74l-0.32,12.16h-5.13l-1.74-8.06c-0.32-1.47-2.32-2.21-6-2.21c-3.69,0-6.59,1.49-8.73,4.46
		c-2.13,2.98-3.2,7.2-3.2,12.68c0,6.21,1.2,10.94,3.59,14.18c2.39,3.24,5.51,4.86,9.36,4.86c2.21,0,4.3-0.34,6.28-1.03
		c1.97-0.68,3.67-1.5,5.09-2.45l1.5,3.16c-1.42,1.47-3.51,2.8-6.28,3.99c-2.76,1.18-5.57,1.78-8.41,1.78
		c-4.32,0-7.96-0.97-10.94-2.92c-2.98-1.95-5.21-4.62-6.71-8.02c-1.5-3.4-2.25-7.25-2.25-11.57
		C1465.16,355.93,1466.01,351.98,1467.72,348.45z"/>
	<path class="st2" d="M1512.78,344.19l-6-1.42v-4.19l12.24-1.5h0.16l1.82,1.42v38.94l6.32,0.63v3.87h-20.93v-3.87l6.4-0.71V344.19z
		 M1512.15,328.78c-0.84-0.95-1.26-2.16-1.26-3.63c0-1.68,0.51-3.08,1.54-4.19c1.03-1.11,2.43-1.66,4.22-1.66s3.11,0.47,3.95,1.42
		c0.84,0.95,1.26,2.16,1.26,3.63c0,1.79-0.51,3.21-1.54,4.27c-1.03,1.05-2.46,1.58-4.3,1.58h-0.08
		C1514.25,330.21,1512.99,329.73,1512.15,328.78z"/>
	<path class="st2" d="M1540.34,359.15c4.95-2.34,11.21-3.59,18.8-3.75v-2.21c0-2.47-0.26-4.42-0.79-5.84
		c-0.53-1.42-1.44-2.46-2.72-3.12c-1.29-0.66-3.12-0.99-5.49-0.99c-2.69,0-5.09,0.38-7.23,1.14c-2.13,0.76-4.25,1.7-6.36,2.8
		l-1.97-4.11c0.68-0.58,1.95-1.34,3.79-2.29c1.84-0.95,3.97-1.79,6.4-2.53c2.42-0.74,4.84-1.11,7.27-1.11c3.74,0,6.7,0.51,8.88,1.54
		c2.18,1.03,3.75,2.67,4.7,4.94c0.95,2.26,1.42,5.29,1.42,9.08v25.35h4.66v3.48c-1.05,0.26-2.38,0.53-3.99,0.79
		c-1.61,0.26-3.02,0.4-4.23,0.4c-1.47,0-2.48-0.22-3-0.67c-0.53-0.45-0.79-1.43-0.79-2.96v-2.61c-1.58,1.58-3.51,3.03-5.8,4.34
		c-2.29,1.32-4.88,1.97-7.78,1.97c-3.79,0-6.94-1.09-9.44-3.28c-2.5-2.18-3.75-5.33-3.75-9.44
		C1532.92,365.14,1535.39,361.5,1540.34,359.15z M1554.24,376.17c1.79-0.84,3.42-1.84,4.9-3v-13.58c-5.74,0-10.07,0.88-12.99,2.65
		c-2.92,1.76-4.38,4.07-4.38,6.91c0,2.84,0.7,4.94,2.09,6.28c1.39,1.34,3.28,2.01,5.65,2.01
		C1550.87,377.44,1552.45,377.02,1554.24,376.17z"/>
	<path class="st2" d="M1578.84,348.45c1.71-3.53,4.24-6.33,7.58-8.41c3.34-2.08,7.36-3.12,12.04-3.12c2.26,0,4.21,0.21,5.84,0.63
		c1.63,0.42,3.58,1,5.84,1.74l-0.32,12.16h-5.13l-1.74-8.06c-0.32-1.47-2.32-2.21-6-2.21c-3.69,0-6.59,1.49-8.73,4.46
		c-2.13,2.98-3.2,7.2-3.2,12.68c0,6.21,1.2,10.94,3.59,14.18c2.39,3.24,5.51,4.86,9.36,4.86c2.21,0,4.3-0.34,6.28-1.03
		c1.97-0.68,3.67-1.5,5.09-2.45l1.5,3.16c-1.42,1.47-3.51,2.8-6.28,3.99c-2.76,1.18-5.57,1.78-8.41,1.78
		c-4.32,0-7.96-0.97-10.94-2.92c-2.98-1.95-5.21-4.62-6.71-8.02c-1.5-3.4-2.25-7.25-2.25-11.57
		C1576.28,355.93,1577.13,351.98,1578.84,348.45z"/>
	<path class="st2" d="M1623.9,344.19l-6-1.42v-4.19l12.24-1.5h0.16l1.82,1.42v38.94l6.32,0.63v3.87h-20.93v-3.87l6.4-0.71V344.19z
		 M1623.27,328.78c-0.84-0.95-1.26-2.16-1.26-3.63c0-1.68,0.51-3.08,1.54-4.19c1.03-1.11,2.43-1.66,4.22-1.66s3.11,0.47,3.95,1.42
		c0.84,0.95,1.26,2.16,1.26,3.63c0,1.79-0.51,3.21-1.54,4.27c-1.03,1.05-2.46,1.58-4.3,1.58h-0.08
		C1625.37,330.21,1624.11,329.73,1623.27,328.78z"/>
	<path class="st2" d="M1646.96,347.58c1.95-3.48,4.51-6.12,7.7-7.94c3.18-1.82,6.59-2.72,10.23-2.72c6.63,0,11.62,2.11,14.97,6.32
		c3.34,4.21,5.01,9.74,5.01,16.58c0,4.79-0.97,8.92-2.92,12.4c-1.95,3.48-4.52,6.11-7.7,7.9c-3.19,1.79-6.59,2.69-10.23,2.69
		c-6.63,0-11.62-2.11-14.97-6.32c-3.34-4.21-5.02-9.74-5.02-16.59C1644.04,355.16,1645.01,351.06,1646.96,347.58z M1672.87,373.8
		c1.95-3,2.92-7.45,2.92-13.35c0-5.84-0.9-10.48-2.69-13.9c-1.79-3.42-4.66-5.13-8.61-5.13c-3.63,0-6.44,1.5-8.41,4.5
		s-2.96,7.45-2.96,13.35c0,5.84,0.92,10.48,2.76,13.9c1.84,3.42,4.71,5.13,8.61,5.13C1668.13,378.31,1670.92,376.8,1672.87,373.8z
		 M1658.41,327.76l12.64-15.72l6,5.05c-1.11,1.79-3.48,4.24-7.11,7.34c-3.63,3.11-6.45,5.08-8.45,5.92L1658.41,327.76z"/>
	<path class="st2" d="M1696.8,344.19l-5.69-1.42v-4.26l11.29-1.42h0.24l1.66,1.42v3.32l-0.08,1.9c1.9-1.68,4.4-3.21,7.5-4.58
		c3.11-1.37,6.08-2.05,8.92-2.05c3.32,0,5.88,0.63,7.7,1.9s3.09,3.2,3.83,5.81c0.74,2.61,1.11,6.12,1.11,10.54v22.11l5.53,0.55v3.95
		h-18.72v-3.87l4.9-0.63v-22.19c0-3.11-0.21-5.54-0.63-7.3c-0.42-1.76-1.21-3.08-2.37-3.95c-1.16-0.87-2.84-1.3-5.05-1.3
		c-1.9,0-3.92,0.47-6.08,1.42c-2.16,0.95-4.08,2.05-5.76,3.32v29.93l5.37,0.71v3.87h-18.64v-3.87l4.98-0.71V344.19z"/>
	<path class="st2" d="M1771.59,380.44c-2.63-1.58-4.73-4-6.28-7.27c-1.55-3.26-2.33-7.29-2.33-12.08c0-4.47,0.92-8.56,2.76-12.24
		c1.84-3.69,4.49-6.59,7.94-8.73c3.45-2.13,7.52-3.2,12.2-3.2c2.69,0,5.13,0.29,7.35,0.87v-14.77l-8.06-0.95v-3.4l14.22-1.42h0.24
		l1.74,1.26v59.39h4.58v3.63c-1.69,0.37-3.15,0.66-4.38,0.87c-1.24,0.21-2.54,0.32-3.91,0.32c-1.37,0-2.34-0.24-2.92-0.71
		c-0.58-0.47-0.87-1.47-0.87-3v-2.53c-1.47,1.79-3.41,3.29-5.81,4.5c-2.4,1.21-4.99,1.82-7.78,1.82
		C1777.12,382.81,1774.22,382.02,1771.59,380.44z M1789.2,375.82c1.79-0.92,3.13-1.99,4.03-3.2v-28.91c-0.42-0.63-1.41-1.2-2.96-1.7
		c-1.55-0.5-3.2-0.75-4.94-0.75c-4.11,0-7.38,1.57-9.83,4.7s-3.67,7.96-3.67,14.49c0,5.69,1.08,9.9,3.24,12.64
		c2.16,2.74,4.95,4.11,8.37,4.11C1785.49,377.2,1787.41,376.74,1789.2,375.82z"/>
	<path class="st2" d="M1817.12,376.57c-3.34-4.16-5.01-9.71-5.01-16.67c0-4.58,0.87-8.61,2.61-12.08c1.74-3.47,4.17-6.16,7.31-8.06
		s6.7-2.84,10.7-2.84c4.9,0,8.7,1.36,11.41,4.07c2.71,2.71,4.15,6.59,4.3,11.65c0,3.21-0.19,5.66-0.55,7.34h-27.17
		c0.1,5.21,1.32,9.41,3.63,12.6c2.32,3.19,5.61,4.78,9.87,4.78c2.11,0,4.3-0.38,6.59-1.14c2.29-0.76,4.07-1.67,5.33-2.73l1.5,3.48
		c-1.53,1.58-3.79,2.95-6.79,4.11c-3,1.16-6.06,1.74-9.16,1.74C1825.32,382.81,1820.46,380.73,1817.12,376.57z M1839.75,355.8
		c0.16-1.11,0.24-2.24,0.24-3.4c-0.05-3.42-0.78-6.12-2.17-8.1c-1.4-1.97-3.59-2.96-6.59-2.96c-3.05,0-5.49,1.11-7.31,3.32
		c-1.82,2.21-2.86,5.92-3.12,11.14H1839.75z"/>
	<path class="st2" d="M1885.43,379.06c-4.08-2.5-7.17-6.01-9.28-10.54c-2.11-4.53-3.16-9.84-3.16-15.95c0-5.9,1.24-11.11,3.71-15.64
		c2.47-4.53,5.87-8.04,10.19-10.54c4.32-2.5,9.16-3.75,14.53-3.75c4.05,0,8.92,0.63,14.61,1.9l2.61,0.47l-0.79,14.22h-5.29
		l-1.97-10.03c-0.74-0.63-2.01-1.17-3.83-1.62c-1.82-0.45-4.04-0.67-6.67-0.67c-3.37,0-6.37,0.96-9,2.88
		c-2.63,1.92-4.7,4.75-6.2,8.49c-1.5,3.74-2.25,8.21-2.25,13.43c0,4.95,0.66,9.45,1.97,13.51c1.32,4.05,3.32,7.28,6,9.67
		c2.69,2.4,6,3.59,9.95,3.59c2.79,0,4.94-0.24,6.44-0.71c1.5-0.47,2.78-1.16,3.83-2.05l3.32-7.74l4.98,0.63l-1.9,11.21
		c-1.11,0.05-2.74,0.42-4.9,1.11c-1.9,0.58-3.73,1.04-5.49,1.38c-1.76,0.34-3.96,0.51-6.59,0.51
		C1894.45,382.81,1889.51,381.56,1885.43,379.06z"/>
	<path class="st2" d="M1930.37,376.57c-3.34-4.16-5.01-9.71-5.01-16.67c0-4.58,0.87-8.61,2.61-12.08c1.74-3.47,4.17-6.16,7.31-8.06
		s6.7-2.84,10.7-2.84c4.9,0,8.7,1.36,11.41,4.07c2.71,2.71,4.15,6.59,4.3,11.65c0,3.21-0.19,5.66-0.55,7.34h-27.17
		c0.1,5.21,1.32,9.41,3.63,12.6c2.32,3.19,5.61,4.78,9.87,4.78c2.11,0,4.3-0.38,6.59-1.14c2.29-0.76,4.07-1.67,5.33-2.73l1.5,3.48
		c-1.53,1.58-3.79,2.95-6.79,4.11c-3,1.16-6.06,1.74-9.16,1.74C1938.57,382.81,1933.72,380.73,1930.37,376.57z M1953,355.8
		c0.16-1.11,0.24-2.24,0.24-3.4c-0.05-3.42-0.78-6.12-2.17-8.1c-1.4-1.97-3.59-2.96-6.59-2.96c-3.05,0-5.49,1.11-7.31,3.32
		c-1.82,2.21-2.86,5.92-3.12,11.14H1953z"/>
	<path class="st2" d="M1973.22,344.19l-5.69-1.42v-4.26l11.29-1.42h0.24l1.66,1.42v3.32l-0.08,1.9c1.9-1.68,4.4-3.21,7.5-4.58
		c3.11-1.37,6.08-2.05,8.92-2.05c3.32,0,5.88,0.63,7.7,1.9s3.09,3.2,3.83,5.81c0.74,2.61,1.11,6.12,1.11,10.54v22.11l5.53,0.55v3.95
		h-18.72v-3.87l4.9-0.63v-22.19c0-3.11-0.21-5.54-0.63-7.3c-0.42-1.76-1.21-3.08-2.37-3.95c-1.16-0.87-2.84-1.3-5.05-1.3
		c-1.9,0-3.92,0.47-6.08,1.42c-2.16,0.95-4.08,2.05-5.76,3.32v29.93l5.37,0.71v3.87h-18.64v-3.87l4.98-0.71V344.19z"/>
	<path class="st2" d="M2027.71,380.67c-1.48-1.37-2.21-3.71-2.21-7.03v-30.33h-5.69v-3.55c0.26-0.05,1-0.24,2.21-0.55
		c1.21-0.32,2.03-0.6,2.45-0.87c0.84-0.47,1.5-1.42,1.97-2.84c0.42-1,0.92-2.61,1.5-4.82c0.58-2.21,0.92-3.53,1.03-3.95h4.66
		l0.16,11.37h13.19v5.21h-13.19v24.25c0,3,0.09,5.11,0.28,6.32c0.18,1.21,0.58,2,1.18,2.37c0.6,0.37,1.65,0.55,3.12,0.55
		c1.42,0,2.99-0.18,4.7-0.55c1.71-0.37,3.04-0.76,3.99-1.18l1.18,3.55c-1.26,0.95-3.3,1.87-6.12,2.76c-2.82,0.89-5.38,1.34-7.7,1.34
		C2031.43,382.73,2029.19,382.04,2027.71,380.67z"/>
	<path class="st2" d="M2053.22,378.07l5.92-0.47v-33.41l-5.69-1.42v-4.26l10.9-1.42h0.16l1.74,1.42v1.42l-0.24,6.16h0.24
		c0.53-0.89,1.47-2.05,2.84-3.47c1.37-1.42,3.13-2.73,5.29-3.91s4.5-1.78,7.03-1.78c1.05,0,1.92,0.13,2.61,0.39v8.85
		c-0.37-0.26-0.96-0.51-1.78-0.75c-0.82-0.24-1.72-0.36-2.72-0.36c-4.37,0-8.42,1.34-12.16,4.03v28.43l10.03,0.63v3.79h-24.17
		V378.07z"/>
	<path class="st2" d="M2092.16,347.58c1.95-3.48,4.51-6.12,7.7-7.94c3.18-1.82,6.59-2.72,10.23-2.72c6.63,0,11.62,2.11,14.97,6.32
		c3.34,4.21,5.01,9.74,5.01,16.58c0,4.79-0.97,8.92-2.92,12.4c-1.95,3.48-4.52,6.11-7.7,7.9c-3.19,1.79-6.59,2.69-10.23,2.69
		c-6.63,0-11.62-2.11-14.97-6.32c-3.34-4.21-5.02-9.74-5.02-16.59C2089.24,355.16,2090.21,351.06,2092.16,347.58z M2118.07,373.8
		c1.95-3,2.92-7.45,2.92-13.35c0-5.84-0.9-10.48-2.69-13.9c-1.79-3.42-4.66-5.13-8.61-5.13c-3.63,0-6.44,1.5-8.41,4.5
		s-2.96,7.45-2.96,13.35c0,5.84,0.92,10.48,2.76,13.9c1.84,3.42,4.71,5.13,8.61,5.13C2113.33,378.31,2116.12,376.8,2118.07,373.8z"
		/>
	<path class="st2" d="M2144.6,375.62c0.53,0.79,1.64,1.5,3.36,2.13c1.71,0.63,3.51,0.95,5.41,0.95c3,0,5.21-0.58,6.63-1.74
		c1.42-1.16,2.13-2.76,2.13-4.82c0-1.42-0.45-2.66-1.34-3.71c-0.9-1.05-2.15-1.99-3.75-2.8c-1.61-0.82-3.91-1.8-6.91-2.96
		c-4.06-1.53-7.02-3.36-8.88-5.49c-1.87-2.13-2.8-4.94-2.8-8.41c0-2.32,0.7-4.34,2.09-6.08c1.39-1.74,3.32-3.09,5.76-4.07
		c2.45-0.97,5.17-1.46,8.17-1.46c2.42,0,4.54,0.19,6.36,0.55c1.82,0.37,3.28,0.74,4.38,1.11s1.84,0.61,2.21,0.71v9.79h-4.82
		l-1.58-5.84c-0.32-0.63-1.16-1.17-2.53-1.62c-1.37-0.45-2.9-0.67-4.58-0.67c-2.37,0-4.28,0.53-5.73,1.58
		c-1.45,1.05-2.17,2.48-2.17,4.26c0,1.58,0.38,2.88,1.15,3.91c0.76,1.03,1.72,1.86,2.88,2.49c1.16,0.63,2.74,1.37,4.74,2.21
		l1.58,0.63c2.95,1.16,5.34,2.26,7.19,3.32c1.84,1.05,3.38,2.44,4.62,4.15c1.24,1.71,1.86,3.8,1.86,6.28c0,3.9-1.51,7-4.54,9.32
		c-3.03,2.32-7.17,3.48-12.44,3.48c-2.58,0-5.28-0.36-8.09-1.07c-2.82-0.71-5.12-1.43-6.91-2.17v-10.11h5.13L2144.6,375.62z"/>
	<path class="st2" d="M1327.58,475.21c-2.63-1.58-4.73-4-6.28-7.27c-1.55-3.26-2.33-7.29-2.33-12.08c0-4.47,0.92-8.56,2.76-12.24
		c1.84-3.69,4.49-6.59,7.94-8.73s7.52-3.2,12.2-3.2c2.68,0,5.13,0.29,7.34,0.87v-14.77l-8.06-0.95v-3.4l14.22-1.42h0.24l1.74,1.26
		v59.39h4.58v3.63c-1.69,0.37-3.15,0.66-4.38,0.87c-1.24,0.21-2.54,0.32-3.91,0.32c-1.37,0-2.34-0.24-2.92-0.71
		c-0.58-0.47-0.87-1.47-0.87-3v-2.53c-1.47,1.79-3.41,3.29-5.8,4.5c-2.4,1.21-4.99,1.82-7.78,1.82
		C1333.11,477.58,1330.21,476.79,1327.58,475.21z M1345.19,470.59c1.79-0.92,3.13-1.99,4.03-3.2v-28.91
		c-0.42-0.63-1.41-1.2-2.96-1.7c-1.55-0.5-3.2-0.75-4.94-0.75c-4.11,0-7.38,1.57-9.83,4.7c-2.45,3.13-3.67,7.96-3.67,14.49
		c0,5.69,1.08,9.9,3.24,12.64c2.16,2.74,4.95,4.11,8.37,4.11C1341.48,471.97,1343.4,471.51,1345.19,470.59z"/>
	<path class="st2" d="M1373.11,471.34c-3.34-4.16-5.01-9.71-5.01-16.67c0-4.58,0.87-8.61,2.61-12.08c1.74-3.47,4.17-6.16,7.31-8.06
		c3.13-1.9,6.7-2.84,10.7-2.84c4.9,0,8.7,1.36,11.41,4.07s4.15,6.59,4.3,11.65c0,3.21-0.18,5.66-0.55,7.34h-27.17
		c0.11,5.21,1.32,9.41,3.63,12.6c2.32,3.19,5.61,4.78,9.87,4.78c2.11,0,4.3-0.38,6.59-1.14c2.29-0.76,4.07-1.67,5.33-2.73l1.5,3.48
		c-1.53,1.58-3.79,2.95-6.79,4.11c-3,1.16-6.06,1.74-9.16,1.74C1381.31,477.58,1376.45,475.5,1373.11,471.34z M1395.74,450.57
		c0.16-1.11,0.24-2.24,0.24-3.4c-0.05-3.42-0.78-6.12-2.17-8.1c-1.4-1.97-3.59-2.96-6.59-2.96c-3.05,0-5.49,1.11-7.3,3.32
		c-1.82,2.21-2.86,5.92-3.12,11.14H1395.74z"/>
	<path class="st2" d="M1436.57,422.93l-6.79-0.95v-3.95h42.25l0.79,13.43h-5.13l-2.37-8.77l-20.3-0.55v22.9l14.29-0.24l1.34-6.56
		h4.19v18.48h-4.11l-1.42-6.87l-14.29-0.32v22.51l12.32,0.79v3.87h-27.09v-3.87l6.32-0.79V422.93z"/>
	<path class="st2" d="M1481.74,442.36c1.95-3.48,4.51-6.12,7.7-7.94c3.18-1.82,6.59-2.72,10.23-2.72c6.63,0,11.62,2.11,14.97,6.32
		c3.34,4.21,5.01,9.74,5.01,16.58c0,4.79-0.97,8.92-2.92,12.4c-1.95,3.48-4.52,6.11-7.7,7.9c-3.19,1.79-6.59,2.69-10.23,2.69
		c-6.63,0-11.62-2.11-14.97-6.32c-3.34-4.21-5.02-9.74-5.02-16.59C1478.82,449.94,1479.79,445.83,1481.74,442.36z M1507.65,468.58
		c1.95-3,2.92-7.45,2.92-13.35c0-5.84-0.9-10.48-2.69-13.9c-1.79-3.42-4.66-5.13-8.61-5.13c-3.63,0-6.44,1.5-8.41,4.5
		s-2.96,7.45-2.96,13.35c0,5.84,0.92,10.48,2.76,13.9c1.84,3.42,4.71,5.13,8.61,5.13C1502.91,473.08,1505.7,471.58,1507.65,468.58z"
		/>
	<path class="st2" d="M1527,472.84l5.92-0.47v-33.41l-5.69-1.42v-4.26l10.9-1.42h0.16l1.74,1.42v1.42l-0.24,6.16h0.24
		c0.53-0.89,1.47-2.05,2.84-3.47c1.37-1.42,3.13-2.73,5.29-3.91s4.5-1.78,7.03-1.78c1.05,0,1.92,0.13,2.61,0.39v8.85
		c-0.37-0.26-0.96-0.51-1.78-0.75c-0.82-0.24-1.72-0.36-2.72-0.36c-4.37,0-8.42,1.34-12.16,4.03v28.43l10.03,0.63v3.79H1527V472.84z
		"/>
	<path class="st2" d="M1562.93,472.84l4.82-0.71v-33.17l-5.69-1.42v-4.26l11.29-1.42l1.42,1.03l0.47,3.16l-0.08,2.53
		c1.84-1.68,4.36-3.22,7.54-4.62c3.18-1.39,6.04-2.09,8.57-2.09c2.84,0,5.13,0.47,6.87,1.42c1.74,0.95,3.05,2.42,3.95,4.42
		c1.68-1.42,4.04-2.75,7.07-3.99c3.03-1.24,5.86-1.86,8.49-1.86c3.26,0,5.82,0.62,7.66,1.86c1.84,1.24,3.15,3.16,3.91,5.77
		c0.76,2.61,1.14,6.09,1.14,10.46v22.19l5.69,0.71v3.87h-18.8v-3.87l4.9-0.71v-21.96c0-3.05-0.22-5.49-0.67-7.31
		c-0.45-1.82-1.29-3.17-2.53-4.07c-1.24-0.89-3.01-1.34-5.33-1.34c-1.74,0-3.58,0.38-5.53,1.15c-1.95,0.76-3.61,1.67-4.98,2.72
		c0.47,2.05,0.71,4.98,0.71,8.77v22.04l5.61,0.71v3.87h-19.11v-3.87l5.21-0.71v-22.11c0-3.16-0.2-5.61-0.59-7.34
		s-1.15-3.04-2.25-3.91c-1.11-0.87-2.79-1.3-5.05-1.3c-1.9,0-3.91,0.47-6.04,1.42c-2.13,0.95-3.99,2.05-5.57,3.32v29.93l5.29,0.71
		v3.87h-18.4V472.84z"/>
	<path class="st2" d="M1649.02,453.93c4.95-2.34,11.21-3.59,18.8-3.75v-2.21c0-2.47-0.26-4.42-0.79-5.84
		c-0.53-1.42-1.44-2.46-2.72-3.12c-1.29-0.66-3.12-0.99-5.49-0.99c-2.69,0-5.09,0.38-7.23,1.14c-2.13,0.76-4.25,1.7-6.36,2.8
		l-1.97-4.11c0.68-0.58,1.95-1.34,3.79-2.29c1.84-0.95,3.97-1.79,6.4-2.53c2.42-0.74,4.84-1.11,7.27-1.11c3.74,0,6.7,0.51,8.88,1.54
		c2.18,1.03,3.75,2.67,4.7,4.94c0.95,2.26,1.42,5.29,1.42,9.08v25.35h4.66v3.48c-1.05,0.26-2.38,0.53-3.99,0.79
		c-1.61,0.26-3.02,0.4-4.23,0.4c-1.47,0-2.48-0.22-3-0.67c-0.53-0.45-0.79-1.43-0.79-2.96v-2.61c-1.58,1.58-3.51,3.03-5.8,4.34
		c-2.29,1.32-4.88,1.97-7.78,1.97c-3.79,0-6.94-1.09-9.44-3.28c-2.5-2.18-3.75-5.33-3.75-9.44
		C1641.59,459.92,1644.07,456.27,1649.02,453.93z M1662.92,470.95c1.79-0.84,3.42-1.84,4.9-3v-13.58c-5.74,0-10.07,0.88-12.99,2.65
		c-2.92,1.76-4.38,4.07-4.38,6.91c0,2.84,0.7,4.94,2.09,6.28c1.39,1.34,3.28,2.01,5.65,2.01
		C1659.55,472.21,1661.13,471.79,1662.92,470.95z"/>
	<path class="st2" d="M1687.52,443.23c1.71-3.53,4.24-6.33,7.58-8.41c3.34-2.08,7.36-3.12,12.04-3.12c2.26,0,4.21,0.21,5.84,0.63
		c1.63,0.42,3.58,1,5.84,1.74l-0.32,12.16h-5.13l-1.74-8.06c-0.32-1.47-2.32-2.21-6-2.21c-3.69,0-6.59,1.49-8.73,4.46
		c-2.13,2.98-3.2,7.2-3.2,12.68c0,6.21,1.2,10.94,3.59,14.18c2.39,3.24,5.51,4.86,9.36,4.86c2.21,0,4.3-0.34,6.28-1.03
		c1.97-0.68,3.67-1.5,5.09-2.45l1.5,3.16c-1.42,1.47-3.51,2.8-6.28,3.99c-2.76,1.18-5.57,1.78-8.41,1.78
		c-4.32,0-7.96-0.97-10.94-2.92c-2.98-1.95-5.21-4.62-6.71-8.02c-1.5-3.4-2.25-7.25-2.25-11.57
		C1684.95,450.7,1685.81,446.75,1687.52,443.23z"/>
	<path class="st2" d="M1732.58,438.96l-6-1.42v-4.19l12.24-1.5h0.16l1.82,1.42v38.94l6.32,0.63v3.87h-20.93v-3.87l6.4-0.71V438.96z
		 M1731.94,423.56c-0.84-0.95-1.26-2.16-1.26-3.63c0-1.68,0.51-3.08,1.54-4.19c1.03-1.11,2.43-1.66,4.22-1.66s3.11,0.47,3.95,1.42
		c0.84,0.95,1.26,2.16,1.26,3.63c0,1.79-0.51,3.21-1.54,4.27c-1.03,1.05-2.46,1.58-4.3,1.58h-0.08
		C1734.05,424.98,1732.78,424.51,1731.94,423.56z"/>
	<path class="st2" d="M1755.64,442.36c1.95-3.48,4.51-6.12,7.7-7.94c3.18-1.82,6.59-2.72,10.23-2.72c6.63,0,11.62,2.11,14.97,6.32
		c3.34,4.21,5.01,9.74,5.01,16.58c0,4.79-0.97,8.92-2.92,12.4c-1.95,3.48-4.52,6.11-7.7,7.9c-3.19,1.79-6.59,2.69-10.23,2.69
		c-6.63,0-11.62-2.11-14.97-6.32c-3.34-4.21-5.02-9.74-5.02-16.59C1752.71,449.94,1753.69,445.83,1755.64,442.36z M1781.54,468.58
		c1.95-3,2.92-7.45,2.92-13.35c0-5.84-0.9-10.48-2.69-13.9c-1.79-3.42-4.66-5.13-8.61-5.13c-3.63,0-6.44,1.5-8.41,4.5
		s-2.96,7.45-2.96,13.35c0,5.84,0.92,10.48,2.76,13.9c1.84,3.42,4.71,5.13,8.61,5.13C1776.8,473.08,1779.59,471.58,1781.54,468.58z
		 M1767.09,422.53l12.64-15.72l6,5.05c-1.11,1.79-3.48,4.24-7.11,7.34c-3.63,3.11-6.45,5.08-8.45,5.92L1767.09,422.53z"/>
	<path class="st2" d="M1805.47,438.96l-5.69-1.42v-4.26l11.29-1.42h0.24l1.66,1.42v3.32l-0.08,1.9c1.9-1.68,4.4-3.21,7.5-4.58
		c3.11-1.37,6.08-2.05,8.92-2.05c3.32,0,5.88,0.63,7.7,1.9s3.09,3.2,3.83,5.81c0.74,2.61,1.11,6.12,1.11,10.54v22.11l5.53,0.55v3.95
		h-18.72v-3.87l4.9-0.63v-22.19c0-3.11-0.21-5.54-0.63-7.3c-0.42-1.76-1.21-3.08-2.37-3.95c-1.16-0.87-2.84-1.3-5.05-1.3
		c-1.9,0-3.92,0.47-6.08,1.42c-2.16,0.95-4.08,2.05-5.76,3.32v29.93l5.37,0.71v3.87h-18.64v-3.87l4.98-0.71V438.96z"/>
	<path class="st2" d="M1878.68,422.93l-6.16-0.95v-3.95h10.5c1.9,0,3.76-0.08,5.61-0.24c2.84-0.21,5.53-0.32,8.06-0.32
		c7.63,0.05,13.03,1.47,16.19,4.26c3.16,2.79,4.74,7,4.74,12.64c0,4.21-0.98,7.87-2.92,10.98c-1.95,3.11-4.65,5.48-8.09,7.11
		c-3.45,1.63-7.41,2.45-11.89,2.45c-1.53,0-3.08-0.04-4.66-0.12c-1.58-0.08-2.55-0.14-2.92-0.2v17.38l10.82,0.87v3.87h-25.83v-3.87
		l6.56-0.79V422.93z M1894.72,450.65c4.16,0,7.54-1.26,10.15-3.79c2.61-2.53,3.91-6.66,3.91-12.4c0-4.53-1.13-7.78-3.4-9.75
		c-2.26-1.97-5.79-2.96-10.58-2.96c-1.69,0-3.48,0.11-5.37,0.32c-1.16,0.11-1.92,0.16-2.29,0.16v28.04
		C1888.61,450.52,1891.13,450.65,1894.72,450.65z"/>
	<path class="st2" d="M1923.31,472.84l5.92-0.47v-33.41l-5.69-1.42v-4.26l10.9-1.42h0.16l1.74,1.42v1.42l-0.24,6.16h0.24
		c0.53-0.89,1.47-2.05,2.84-3.47c1.37-1.42,3.13-2.73,5.29-3.91s4.5-1.78,7.03-1.78c1.05,0,1.92,0.13,2.61,0.39v8.85
		c-0.37-0.26-0.96-0.51-1.78-0.75c-0.82-0.24-1.72-0.36-2.72-0.36c-4.37,0-8.42,1.34-12.16,4.03v28.43l10.03,0.63v3.79h-24.17
		V472.84z"/>
	<path class="st2" d="M1962.24,442.36c1.95-3.48,4.51-6.12,7.7-7.94c3.18-1.82,6.59-2.72,10.23-2.72c6.63,0,11.62,2.11,14.97,6.32
		c3.34,4.21,5.01,9.74,5.01,16.58c0,4.79-0.97,8.92-2.92,12.4c-1.95,3.48-4.52,6.11-7.7,7.9c-3.19,1.79-6.59,2.69-10.23,2.69
		c-6.63,0-11.62-2.11-14.97-6.32c-3.34-4.21-5.02-9.74-5.02-16.59C1959.32,449.94,1960.29,445.83,1962.24,442.36z M1988.15,468.58
		c1.95-3,2.92-7.45,2.92-13.35c0-5.84-0.9-10.48-2.69-13.9c-1.79-3.42-4.66-5.13-8.61-5.13c-3.63,0-6.44,1.5-8.41,4.5
		s-2.96,7.45-2.96,13.35c0,5.84,0.92,10.48,2.76,13.9c1.84,3.42,4.71,5.13,8.61,5.13C1983.41,473.08,1986.2,471.58,1988.15,468.58z"
		/>
	<path class="st2" d="M2013.66,438.09h-7.42v-3.63l7.42-1.5v-3.71c0-3.26,0.86-6.26,2.57-9c1.71-2.74,3.95-4.91,6.71-6.52
		c2.76-1.61,5.7-2.41,8.81-2.41c1.79,0,3.34,0.24,4.66,0.71v7.9c-0.47-0.42-1.41-0.83-2.8-1.22c-1.4-0.4-2.94-0.59-4.62-0.59
		c-2.48,0-4.28,0.65-5.41,1.94c-1.13,1.29-1.7,3.51-1.7,6.67v6.24h10.9v5.13h-10.9v34.12l8.77,0.63v3.87h-23.69v-3.87l6.71-0.71
		V438.09z"/>
	<path class="st2" d="M2043.79,471.34c-3.34-4.16-5.01-9.71-5.01-16.67c0-4.58,0.87-8.61,2.61-12.08c1.74-3.47,4.17-6.16,7.31-8.06
		s6.7-2.84,10.7-2.84c4.9,0,8.7,1.36,11.41,4.07c2.71,2.71,4.15,6.59,4.3,11.65c0,3.21-0.19,5.66-0.55,7.34h-27.17
		c0.1,5.21,1.32,9.41,3.63,12.6c2.32,3.19,5.61,4.78,9.87,4.78c2.11,0,4.3-0.38,6.59-1.14c2.29-0.76,4.07-1.67,5.33-2.73l1.5,3.48
		c-1.53,1.58-3.79,2.95-6.79,4.11c-3,1.16-6.06,1.74-9.16,1.74C2051.99,477.58,2047.13,475.5,2043.79,471.34z M2066.41,450.57
		c0.16-1.11,0.24-2.24,0.24-3.4c-0.05-3.42-0.78-6.12-2.17-8.1c-1.4-1.97-3.59-2.96-6.59-2.96c-3.05,0-5.49,1.11-7.31,3.32
		c-1.82,2.21-2.86,5.92-3.12,11.14H2066.41z"/>
	<path class="st2" d="M2089.24,470.39c0.53,0.79,1.64,1.5,3.36,2.13c1.71,0.63,3.51,0.95,5.41,0.95c3,0,5.21-0.58,6.63-1.74
		c1.42-1.16,2.13-2.76,2.13-4.82c0-1.42-0.45-2.66-1.34-3.71c-0.9-1.05-2.15-1.99-3.75-2.8c-1.61-0.82-3.91-1.8-6.91-2.96
		c-4.06-1.53-7.02-3.36-8.88-5.49c-1.87-2.13-2.8-4.94-2.8-8.41c0-2.32,0.7-4.34,2.09-6.08c1.39-1.74,3.32-3.09,5.76-4.07
		c2.45-0.97,5.17-1.46,8.17-1.46c2.42,0,4.54,0.19,6.36,0.55c1.82,0.37,3.28,0.74,4.38,1.11s1.84,0.61,2.21,0.71v9.79h-4.82
		l-1.58-5.84c-0.32-0.63-1.16-1.17-2.53-1.62c-1.37-0.45-2.9-0.67-4.58-0.67c-2.37,0-4.28,0.53-5.73,1.58
		c-1.45,1.05-2.17,2.48-2.17,4.26c0,1.58,0.38,2.88,1.15,3.91c0.76,1.03,1.72,1.86,2.88,2.49c1.16,0.63,2.74,1.37,4.74,2.21
		l1.58,0.63c2.95,1.16,5.34,2.26,7.19,3.32c1.84,1.05,3.38,2.44,4.62,4.15c1.24,1.71,1.86,3.8,1.86,6.28c0,3.9-1.51,7-4.54,9.32
		c-3.03,2.32-7.17,3.48-12.44,3.48c-2.58,0-5.28-0.36-8.09-1.07c-2.82-0.71-5.12-1.43-6.91-2.17v-10.11h5.13L2089.24,470.39z"/>
	<path class="st2" d="M2127.94,438.96l-6-1.42v-4.19l12.24-1.5h0.16l1.82,1.42v38.94l6.32,0.63v3.87h-20.93v-3.87l6.4-0.71V438.96z
		 M2127.31,423.56c-0.84-0.95-1.26-2.16-1.26-3.63c0-1.68,0.51-3.08,1.54-4.19c1.03-1.11,2.43-1.66,4.22-1.66s3.11,0.47,3.95,1.42
		c0.84,0.95,1.26,2.16,1.26,3.63c0,1.79-0.51,3.21-1.54,4.27c-1.03,1.05-2.46,1.58-4.3,1.58h-0.08
		C2129.41,424.98,2128.15,424.51,2127.31,423.56z"/>
	<path class="st2" d="M2151,442.36c1.95-3.48,4.51-6.12,7.7-7.94c3.18-1.82,6.59-2.72,10.23-2.72c6.63,0,11.62,2.11,14.97,6.32
		c3.34,4.21,5.01,9.74,5.01,16.58c0,4.79-0.97,8.92-2.92,12.4c-1.95,3.48-4.52,6.11-7.7,7.9c-3.19,1.79-6.59,2.69-10.23,2.69
		c-6.63,0-11.62-2.11-14.97-6.32c-3.34-4.21-5.02-9.74-5.02-16.59C2148.08,449.94,2149.05,445.83,2151,442.36z M2176.9,468.58
		c1.95-3,2.92-7.45,2.92-13.35c0-5.84-0.9-10.48-2.69-13.9c-1.79-3.42-4.66-5.13-8.61-5.13c-3.63,0-6.44,1.5-8.41,4.5
		s-2.96,7.45-2.96,13.35c0,5.84,0.92,10.48,2.76,13.9c1.84,3.42,4.71,5.13,8.61,5.13C2172.16,473.08,2174.95,471.58,2176.9,468.58z"
		/>
	<path class="st2" d="M2200.83,438.96l-5.69-1.42v-4.26l11.29-1.42h0.24l1.66,1.42v3.32l-0.08,1.9c1.9-1.68,4.4-3.21,7.5-4.58
		c3.11-1.37,6.08-2.05,8.92-2.05c3.32,0,5.88,0.63,7.7,1.9s3.09,3.2,3.83,5.81c0.74,2.61,1.11,6.12,1.11,10.54v22.11l5.53,0.55v3.95
		h-18.72v-3.87l4.9-0.63v-22.19c0-3.11-0.21-5.54-0.63-7.3c-0.42-1.76-1.21-3.08-2.37-3.95c-1.16-0.87-2.84-1.3-5.05-1.3
		c-1.9,0-3.92,0.47-6.08,1.42c-2.16,0.95-4.08,2.05-5.76,3.32v29.93l5.37,0.71v3.87h-18.64v-3.87l4.98-0.71V438.96z"/>
	<path class="st2" d="M2255.96,453.93c4.95-2.34,11.21-3.59,18.8-3.75v-2.21c0-2.47-0.26-4.42-0.79-5.84
		c-0.53-1.42-1.44-2.46-2.72-3.12c-1.29-0.66-3.12-0.99-5.49-0.99c-2.69,0-5.09,0.38-7.23,1.14c-2.13,0.76-4.25,1.7-6.36,2.8
		l-1.97-4.11c0.68-0.58,1.95-1.34,3.79-2.29c1.84-0.95,3.97-1.79,6.4-2.53c2.42-0.74,4.84-1.11,7.27-1.11c3.74,0,6.7,0.51,8.88,1.54
		c2.18,1.03,3.75,2.67,4.7,4.94c0.95,2.26,1.42,5.29,1.42,9.08v25.35h4.66v3.48c-1.05,0.26-2.38,0.53-3.99,0.79
		c-1.61,0.26-3.02,0.4-4.23,0.4c-1.47,0-2.48-0.22-3-0.67c-0.53-0.45-0.79-1.43-0.79-2.96v-2.61c-1.58,1.58-3.51,3.03-5.8,4.34
		c-2.29,1.32-4.88,1.97-7.78,1.97c-3.79,0-6.94-1.09-9.44-3.28c-2.5-2.18-3.75-5.33-3.75-9.44
		C2248.53,459.92,2251.01,456.27,2255.96,453.93z M2269.86,470.95c1.79-0.84,3.42-1.84,4.9-3v-13.58c-5.74,0-10.07,0.88-12.99,2.65
		c-2.92,1.76-4.38,4.07-4.38,6.91c0,2.84,0.7,4.94,2.09,6.28c1.39,1.34,3.28,2.01,5.65,2.01
		C2266.49,472.21,2268.07,471.79,2269.86,470.95z"/>
	<path class="st2" d="M2298.61,417.79l-6.4-0.87v-3.4l12.72-1.5h0.16l1.74,1.18v59l6.71,0.63v3.87h-21.32v-3.87l6.4-0.71V417.79z"/>
</g>
</svg>
