<?xml version="1.0" encoding="utf-8"?>
<!-- Generator: Adobe Illustrator 24.1.0, SVG Export Plug-In . SVG Version: 6.00 Build 0)  -->
<svg version="1.1" id="Capa_1" xmlns="http://www.w3.org/2000/svg" xmlns:xlink="http://www.w3.org/1999/xlink" x="0px" y="0px"
	 viewBox="0 0 2367.9 806.8" style="enable-background:new 0 0 2367.9 806.8;" xml:space="preserve">
<style type="text/css">
	.st0{fill:#FFFFFF;}
	.st1{fill:#A1B1C8;}
</style>
<g>
	<g>
		<g>
			<path class="st0" d="M744.2,322.9h108.3V348h-76v39.5h67.2v24.9h-67.2v64.5h-32.3V322.9z"/>
			<path class="st0" d="M889.3,322.9h72.2c17.4,0,30.5,4.9,39.4,14.6c8.9,9.7,13.4,22.6,13.4,38.5c0,10.4-2.2,19.5-6.6,27.5
				c-4.4,8-10.6,14.1-18.8,18.5c-8.1,4.4-17.6,6.6-28.5,6.6h-39v48.3h-32.3L889.3,322.9L889.3,322.9z M953.8,402.9
				c9.1,0,16-2.4,20.8-7.2c4.8-4.8,7.2-11.4,7.2-19.8c0-8.9-2.2-15.7-6.7-20.4s-11.2-7-20.1-7h-33.5v54.5H953.8z"/>
			<path class="st1" d="M1051.4,322.9h110.4V348h-78.2v39.5h69.3v24.9h-69.3v39.7h78.2v24.9h-110.4V322.9z"/>
			<path class="st1" d="M1203.4,322.9h32.5l45.2,92.5l45.2-92.5h32.3v153.9h-32.3V376.6l-35.8,73.6h-18.7l-36.1-73.6v100.2h-32.3
				L1203.4,322.9L1203.4,322.9z"/>
			<path class="st1" d="M1404.9,322.9h72.2c17.4,0,30.5,4.9,39.4,14.6c8.9,9.7,13.4,22.6,13.4,38.5c0,10.4-2.2,19.5-6.6,27.5
				c-4.4,8-10.6,14.1-18.8,18.5c-8.1,4.4-17.6,6.6-28.4,6.6h-39v48.3h-32.3L1404.9,322.9L1404.9,322.9z M1469.5,402.9
				c9.1,0,16-2.4,20.8-7.2s7.2-11.4,7.2-19.8c0-8.9-2.2-15.7-6.7-20.4s-11.2-7-20.1-7h-33.5v54.5H1469.5z"/>
			<path class="st1" d="M1567,322.9h73.9c17.2,0,30.1,4.5,38.6,13.6c8.5,9.1,12.8,21.8,12.8,38c0,10.4-2.7,19.3-8,26.8
				c-5.3,7.5-12.9,12.9-22.6,16.2c2.4,2.1,4.3,4.3,5.9,6.6c1.5,2.3,3.1,5.5,4.9,9.7l18.7,43h-33.5l-18.2-41.4
				c-1.6-3.7-3.4-6.2-5.4-7.5c-2-1.4-5.1-2-9.4-2h-25.3v50.9H1567L1567,322.9L1567,322.9z M1632.5,399.1c8.8,0,15.5-2,20.1-5.9
				c4.6-3.9,6.9-10.2,6.9-18.8c0-8.6-2.1-14.9-6.2-18.9c-4.1-4-10.4-6-18.9-6h-35.1v49.5H1632.5z"/>
			<path class="st1" d="M1733.8,322.9h110.4V348h-78.2v39.5h69.3v24.9h-69.3v39.7h78.2v24.9h-110.4L1733.8,322.9L1733.8,322.9z"/>
			<path class="st1" d="M1884,470.8v-28.5c7.2,2.9,14.8,5.2,22.9,6.9c8.1,1.8,16,2.6,23.7,2.6c12,0,20.4-1.1,25.2-3.3
				s7.3-6.9,7.3-13.9c0-4.6-1.1-8.3-3.4-11s-5.9-5.1-11-7.1c-5.1-2-13.1-4.5-23.9-7.5c-16.1-4.5-27.4-10-33.9-16.7
				c-6.5-6.7-9.8-15.9-9.8-27.7c0-14.2,5.2-25.1,15.5-32.8c10.3-7.6,25.4-11.5,45.2-11.5c8.9,0,17.4,0.6,25.4,1.8
				c8.1,1.2,14.6,2.7,19.7,4.6v28.5c-13.1-4.9-26.7-7.4-40.9-7.4c-10.8,0-18.9,1.2-24.2,3.6c-5.3,2.4-8,6.8-8,13.1c0,4,1,7.2,3,9.6
				c2,2.4,5.3,4.5,10,6.3c4.7,1.8,12,4,21.9,6.6c17.8,4.8,30.2,11,37.1,18.5c6.8,7.6,10.3,17.2,10.3,29c0,13.9-5.3,24.7-15.8,32.6
				c-10.5,7.9-26.1,11.8-46.6,11.8S1896.5,476.4,1884,470.8z"/>
			<path class="st1" d="M2080.9,322.9h35.4l58.6,153.9h-33.5l-14.6-37h-56.6l-14.4,37h-33.7L2080.9,322.9z M2122,414.9l-23.7-61.9
				l-23.4,61.9H2122z"/>
		</g>
	</g>
	<g>
		<path class="st0" d="M644.2,365.1L618,319.7l0.1,0l-47.2-81.7c0,0-0.3-0.6-0.8-1.4c-0.1-0.1-0.2-0.2-0.2-0.3l-3.1-5.4
			c-13.5-23.4-38.5-37.8-65.5-37.8h-155c-27,0-52,14.5-65.5,37.8l-77.5,134.2c-6.7,11.7-10.1,24.7-10.1,37.8
			c0,10.7,2.4,21.3,6.9,31.2l33.6-58.3l0,0l35.3-61.2l0.5-0.8l38.7-67.1c7.9-13.6,22.4-22,38.1-22h155c15.7,0,30.2,8.4,38.1,22
			L616.7,381c7.8,13.5,7.8,30.4,0,44l-77.5,134.2c-7.8,13.6-22.4,22-38.1,22h-155c-1.9,0-3.8-0.2-5.7-0.4l37.8-65.4l99.3,0.1
			c6.7,0,12.9-3.6,16.2-9.4l54.9-95.1c3.3-5.8,3.3-12.9,0-18.6l-54.1-93.6c-3.3-5.8-9.5-9.3-16.1-9.3l-110.5-0.1
			c-5.2,0-10,2.8-12.6,7.3L341.2,321l125.4,0.1c2.6,0,5.1,1.4,6.4,3.7l42.4,73.2c1.3,2.3,1.3,5.1,0,7.4L472.2,480
			c-1.3,2.3-3.8,3.7-6.4,3.7l-105.7-0.1l-47.4,81.9c0,0,0,0,0,0l-16.4,28.3c13.6,12,31.3,19,49.9,19h155c27,0,52-14.4,65.5-37.8
			l77.5-134.2C657.7,417.4,657.7,388.5,644.2,365.1z"/>
		<path class="st0" d="M324.7,418.2l98.7-0.3c6.8,0,13.1-3.7,16.6-9.6l12.8-22.1l-138.6,0.3c-6.7,0-12.9,3.6-16.2,9.4l-60.5,104.6
			l18.4,31.5l64.1-111C321,419.2,322.8,418.2,324.7,418.2z"/>
	</g>
</g>
</svg>
